#N canvas 501 25 714 562 10;
#X floatatom 345 125 5 0 0 0 - - -, f 5;
#X floatatom 433 126 5 0 0 0 - - -, f 5;
#X floatatom 513 124 5 0 0 0 - - -, f 5;
#X floatatom 611 122 5 0 0 0 - - -, f 5;
#X msg 313 272 0 \, 1 \$1 \, \$3 \$2 \$1;
#X obj 268 352 vline~;
#X obj 190 102 sel 0;
#X obj 276 189 bng 15 250 50 0 empty empty empty 17 7 0 10 -262144
-1 -1;
#X obj 188 70 inlet;
#X obj 329 98 inlet attack;
#X obj 421 98 inlet decay;
#X obj 508 99 inlet sustain;
#X obj 599 96 inlet realease;
#X obj 468 284 pack 0 \$4;
#X obj 208 457 outlet~;
#X text 22 46 Enveloppe ADSR~;
#X obj 275 215 f \$1;
#X obj 313 241 pack f \$2 \$3;
#X obj 231 410 *~;
#X obj 213 234 / 127;
#X connect 0 0 16 1;
#X connect 1 0 17 1;
#X connect 2 0 17 2;
#X connect 3 0 13 1;
#X connect 4 0 5 0;
#X connect 5 0 18 0;
#X connect 6 0 13 0;
#X connect 6 1 7 0;
#X connect 6 1 19 0;
#X connect 7 0 16 0;
#X connect 8 0 6 0;
#X connect 9 0 0 0;
#X connect 10 0 1 0;
#X connect 11 0 2 0;
#X connect 12 0 3 0;
#X connect 13 0 5 0;
#X connect 16 0 17 0;
#X connect 17 0 4 0;
#X connect 18 0 14 0;
#X connect 19 0 18 1;
