#N canvas 362 45 739 506 10;
#X obj 247 23 digitalsensor;
#X floatatom 247 56 5 0 0 0 - - -;
#X obj 129 142 synth1;
#X obj 181 371 dac~;
#X obj 275 325 line~;
#X msg 294 295 \$1 25;
#X obj 295 273 hsl 128 15 0 127 0 0 empty empty empty -2 -8 0 10 -262144
-1 -1 2200 1;
#X obj 129 119 notesmidi;
#X obj 203 177 chorus;
#N canvas 334 148 725 489 sounds 0;
#X obj 39 84 soundfiler;
#X text 43 37 Lecture d'un fichier son stereo;
#N canvas 0 0 450 300 (subpatch) 0;
#X array snd1 24000 float 2;
#X coords 0 1 24000 -1 100 80 1 0 0;
#X restore 111 92 graph;
#N canvas 0 0 450 300 (subpatch) 0;
#X array snd2 24000 float 2;
#X coords 0 1 24000 -1 100 80 1 0 0;
#X restore 360 99 graph;
#X floatatom 39 104 9 0 0 0 - - -;
#X obj 39 125 send size;
#X obj 38 23 loadbang;
#X obj 286 96 soundfiler;
#N canvas 0 0 450 300 (subpatch) 0;
#X array sn 2960 float 2;
#X coords 0 1 2960 -1 100 80 1 0 0;
#X restore 130 305 graph;
#X floatatom 286 116 5 0 0 0 - - -;
#X obj 286 137 send size;
#X obj 285 35 loadbang;
#X obj 505 104 soundfiler;
#N canvas 0 0 450 300 (subpatch) 0;
#X array snd3 24000 float 2;
#X coords 0 1 24000 -1 100 80 1 0 0;
#X restore 582 109 graph;
#X floatatom 505 124 5 0 0 0 - - -;
#X obj 505 145 send size;
#X obj 504 43 loadbang;
#X obj 538 315 soundfiler;
#N canvas 0 0 450 300 (subpatch) 0;
#X array snd4 24000 float 2;
#X coords 0 1 24000 -1 100 80 1 0 0;
#X restore 615 320 graph;
#X floatatom 538 335 5 0 0 0 - - -;
#X obj 538 356 send size;
#X obj 537 254 loadbang;
#X text 509 57 Lecture d'un fichier son mono;
#X text 290 49 Lecture d'un fichier son mono;
#X msg 39 54 read -resize perc1.aif snd1;
#X msg 283 66 read -resize perc2.aif snd2;
#X msg 505 75 read -resize perc1.aif snd3;
#X msg 538 287 read -resize perc1.aif snd4;
#X connect 0 0 4 0;
#X connect 4 0 5 0;
#X connect 6 0 24 0;
#X connect 7 0 9 0;
#X connect 9 0 10 0;
#X connect 11 0 25 0;
#X connect 12 0 14 0;
#X connect 14 0 15 0;
#X connect 16 0 26 0;
#X connect 17 0 19 0;
#X connect 19 0 20 0;
#X connect 21 0 27 0;
#X connect 24 0 0 0;
#X connect 25 0 7 0;
#X connect 26 0 12 0;
#X connect 27 0 17 0;
#X restore 38 17 pd sounds;
#N canvas 691 70 558 437 boiterythme 1;
#X obj 60 169 bng 15 250 50 0 empty empty empty 17 7 0 10 -262144 -1
-1;
#X obj 142 169 bng 15 250 50 0 empty empty empty 17 7 0 10 -262144
-1 -1;
#X obj 222 170 bng 15 250 50 0 empty empty empty 17 7 0 10 -262144
-1 -1;
#X obj 59 294 vcf~ 6;
#X obj 74 219 osc~ 0.1;
#X obj 74 245 *~ 200;
#X obj 74 268 +~ 400;
#X obj 141 294 vcf~ 6;
#X obj 156 219 osc~ 0.1;
#X obj 221 293 vcf~ 6;
#X obj 237 218 osc~ 0.1;
#X obj 237 244 *~ 500;
#X obj 237 267 +~ 2000;
#X obj 130 22 inlet go;
#X obj 131 371 outlet~;
#X obj 221 142 sel 1 4 11 13;
#X obj 136 346 *~ 0.2;
#X obj 318 175 bng 15 250 50 0 empty empty empty 17 7 0 10 -262144
-1 -1;
#X obj 317 298 vcf~ 6;
#X obj 333 223 osc~ 0.1;
#X obj 317 147 sel 3 5 9 15;
#X obj 333 272 +~ 3000;
#X obj 333 249 *~ 600;
#X obj 161 88 counter 0 15;
#X obj 160 62 metro 250;
#X obj 154 268 +~ 2000;
#X obj 156 245 *~ 400;
#X obj 216 39 inlet tim;
#X obj 60 145 sel 0 8 10;
#X obj 125 320 *~ 5;
#X obj 59 194 tabplay~ snd1;
#X obj 142 194 tabplay~ snd2;
#X obj 237 193 tabplay~ snd3;
#X obj 319 198 tabplay~ snd4;
#X obj 141 143 sel;
#X connect 0 0 30 0;
#X connect 2 0 32 0;
#X connect 3 0 16 0;
#X connect 4 0 5 0;
#X connect 5 0 6 0;
#X connect 6 0 3 1;
#X connect 7 0 29 0;
#X connect 8 0 26 0;
#X connect 9 0 16 0;
#X connect 10 0 11 0;
#X connect 11 0 12 0;
#X connect 12 0 9 1;
#X connect 13 0 24 0;
#X connect 15 0 2 0;
#X connect 15 1 2 0;
#X connect 15 2 2 0;
#X connect 15 3 2 0;
#X connect 16 0 14 0;
#X connect 17 0 33 0;
#X connect 18 0 16 0;
#X connect 19 0 22 0;
#X connect 20 0 17 0;
#X connect 20 1 17 0;
#X connect 20 2 17 0;
#X connect 20 3 17 0;
#X connect 21 0 18 1;
#X connect 22 0 21 0;
#X connect 23 0 15 0;
#X connect 23 0 20 0;
#X connect 23 0 28 0;
#X connect 23 0 34 0;
#X connect 24 0 23 0;
#X connect 25 0 7 1;
#X connect 26 0 25 0;
#X connect 27 0 24 1;
#X connect 28 0 0 0;
#X connect 28 1 0 0;
#X connect 28 2 0 0;
#X connect 29 0 16 0;
#X connect 30 0 3 0;
#X connect 31 0 7 0;
#X connect 32 0 9 0;
#X connect 33 0 18 0;
#X connect 34 0 1 0;
#X connect 34 1 1 0;
#X restore 293 220 pd boiterythme;
#N canvas 0 23 558 437 boiterythme 1;
#X obj 60 169 bng 15 250 50 0 empty empty empty 17 7 0 10 -262144 -1
-1;
#X obj 142 169 bng 15 250 50 0 empty empty empty 17 7 0 10 -262144
-1 -1;
#X obj 222 170 bng 15 250 50 0 empty empty empty 17 7 0 10 -262144
-1 -1;
#X obj 56 340 vcf~ 6;
#X obj 71 265 osc~ 0.1;
#X obj 71 291 *~ 200;
#X obj 71 314 +~ 400;
#X obj 138 340 vcf~ 6;
#X obj 153 265 osc~ 0.1;
#X obj 218 339 vcf~ 6;
#X obj 234 264 osc~ 0.1;
#X obj 234 290 *~ 500;
#X obj 234 313 +~ 2000;
#X obj 130 22 inlet go;
#X obj 128 417 outlet~;
#X obj 221 142 sel 1 4 11 13;
#X obj 133 392 *~ 0.2;
#X obj 318 175 bng 15 250 50 0 empty empty empty 17 7 0 10 -262144
-1 -1;
#X obj 314 344 vcf~ 6;
#X obj 330 269 osc~ 0.1;
#X obj 317 147 sel 3 5 9 15;
#X obj 330 318 +~ 3000;
#X obj 330 295 *~ 600;
#X obj 141 143 sel 2 10 11;
#X obj 161 88 counter 0 15;
#X obj 160 62 metro 250;
#X obj 151 314 +~ 2000;
#X obj 153 291 *~ 400;
#X obj 216 39 inlet tim;
#X obj 60 145 sel 0 8 10;
#X obj 122 366 *~ 5;
#X obj 221 218 osc~ 400;
#X obj 317 196 osc~ 450;
#X msg 221 193 400;
#X connect 2 0 33 0;
#X connect 3 0 16 0;
#X connect 4 0 5 0;
#X connect 5 0 6 0;
#X connect 6 0 3 1;
#X connect 7 0 30 0;
#X connect 8 0 27 0;
#X connect 9 0 16 0;
#X connect 10 0 11 0;
#X connect 11 0 12 0;
#X connect 12 0 9 1;
#X connect 13 0 25 0;
#X connect 15 0 2 0;
#X connect 15 1 2 0;
#X connect 15 2 2 0;
#X connect 15 3 2 0;
#X connect 16 0 14 0;
#X connect 17 0 32 0;
#X connect 18 0 16 0;
#X connect 19 0 22 0;
#X connect 20 0 17 0;
#X connect 20 1 17 0;
#X connect 20 2 17 0;
#X connect 20 3 17 0;
#X connect 21 0 18 1;
#X connect 22 0 21 0;
#X connect 23 0 1 0;
#X connect 23 1 1 0;
#X connect 23 2 1 0;
#X connect 24 0 15 0;
#X connect 24 0 20 0;
#X connect 24 0 23 0;
#X connect 24 0 29 0;
#X connect 25 0 24 0;
#X connect 26 0 7 1;
#X connect 27 0 26 0;
#X connect 28 0 25 1;
#X connect 29 0 0 0;
#X connect 29 1 0 0;
#X connect 29 2 0 0;
#X connect 30 0 16 0;
#X connect 31 0 9 0;
#X connect 32 0 18 0;
#X connect 33 0 31 0;
#X restore 414 205 pd boiterythme;
#X obj 203 154 osc~;
#X floatatom 203 134 5 0 0 0 - - -;
#X floatatom 339 94 5 0 0 0 - - -;
#X obj 350 52 loadbang;
#X msg 351 73 1;
#X obj 331 136 /;
#X floatatom 343 158 10 0 0 0 - - -;
#X obj 320 118 f;
#X obj 285 82 t b f;
#X obj 190 290 *~ 0.1;
#X obj 244 291 *~ 0.1;
#X obj 203 111 * 3;
#X obj 198 37 tgl 15 0 empty empty empty 17 7 0 10 -262144 -1 -1 0
1;
#X obj 157 335 *~;
#X obj 205 344 *~;
#X obj 202 198 *~ 0.05;
#X obj 355 190 * 5000;
#X obj 71 191 drone1;
#X obj 185 90 * 2;
#X floatatom 248 153 5 0 0 0 - - -;
#X obj 52 231 *~ 0.05;
#X obj 100 232 *~ 0.05;
#X obj 479 149 metro 250;
#X obj 455 112 tgl 15 0 empty empty empty 17 7 0 10 -262144 -1 -1 1
1;
#X obj 444 245 *~ 0.5;
#X connect 0 0 1 0;
#X connect 1 0 20 0;
#X connect 1 0 23 0;
#X connect 1 0 30 0;
#X connect 2 0 21 0;
#X connect 2 1 22 0;
#X connect 4 0 26 1;
#X connect 4 0 25 1;
#X connect 5 0 4 0;
#X connect 6 0 5 0;
#X connect 7 0 2 0;
#X connect 7 1 2 1;
#X connect 8 0 27 0;
#X connect 10 0 21 0;
#X connect 10 0 22 0;
#X connect 11 0 21 0;
#X connect 11 0 22 0;
#X connect 12 0 8 0;
#X connect 13 0 12 0;
#X connect 14 0 19 0;
#X connect 15 0 16 0;
#X connect 16 0 14 0;
#X connect 17 0 18 0;
#X connect 18 0 28 0;
#X connect 19 0 17 0;
#X connect 20 0 19 0;
#X connect 20 1 17 1;
#X connect 21 0 25 0;
#X connect 22 0 26 0;
#X connect 23 0 13 0;
#X connect 24 0 10 0;
#X connect 24 0 7 0;
#X connect 25 0 3 0;
#X connect 26 0 3 1;
#X connect 27 0 21 0;
#X connect 27 0 22 0;
#X connect 28 0 10 1;
#X connect 29 0 32 0;
#X connect 29 1 33 0;
#X connect 30 0 7 1;
#X connect 31 0 8 1;
#X connect 32 0 21 0;
#X connect 33 0 22 0;
#X connect 34 0 11 1;
#X connect 35 0 34 0;
#X connect 35 0 11 0;
