#N canvas 617 177 531 395 10;
#X obj 57 214 comb~ 20 5 0.3 0.3 0.4;
#X obj 129 195 LFO, f 17;
#X floatatom 127 174 5 0 0 0 - - -;
#X floatatom 178 174 5 0 0 0 - - -;
#X floatatom 228 175 5 0 0 0 - - -;
#X msg 129 155 1;
#X msg 178 153 10;
#X msg 228 155 14;
#X obj 178 123 loadbang;
#X obj 57 235 outlet~;
#X obj 57 193 inlet~;
#X obj 130 104 inlet rate;
#X connect 0 0 9 0;
#X connect 1 0 0 1;
#X connect 2 0 1 0;
#X connect 3 0 1 1;
#X connect 4 0 1 2;
#X connect 5 0 2 0;
#X connect 6 0 3 0;
#X connect 7 0 4 0;
#X connect 8 0 5 0;
#X connect 8 0 6 0;
#X connect 8 0 7 0;
#X connect 10 0 0 0;
#X connect 11 0 2 0;
#X coords 0 395 1 394 85 60 0;
