#N canvas 111 423 995 678 10;
#X obj 37 37 import mrpeach;
#X text 389 133 115200 est le baud rate. Vous pourriez avoir à le
changer également.;
#X text 356 282 Décode les paquets SLIP et forme des listes. (Merci
Monsieur Pêche!);
#X obj -8 270 mrpeach/slipdec;
#X msg 69 -61 devices;
#X text 154 35 Importer les objets de Monsieur Pêche. (PD-extended
seulement).;
#X text 34 75 Obtenir la liste des ports usb.;
#X msg 69 193 close;
#X text 373 180 Fermer le port.;
#X text 391 91 Ouvrir une connexion série. Le numéro ou le nom du
port série utilisé sera sans doute différent pour vous. Remplacez
4 par le numéro du port série que vous utilisez.;
#X obj -10 359 << 8;
#X obj -11 398 |;
#X floatatom -8 437 5 0 0 0 - - -, f 5;
#X msg 69 180 open 2;
#X obj -7 462 outlet;
#X obj 52 462 outlet;
#X obj -8 305 unpack f f f f;
#X obj 42 358 << 8;
#X obj 48 397 |;
#X floatatom 48 421 5 0 0 0 - - -, f 5;
#X msg 313 369 disconnect;
#X floatatom 460 505 5 0 0 0 - - -, f 5;
#X obj 594 489 import mrpeach;
#X obj 302 554 udpsend;
#X obj 332 496 packOSC;
#X obj 147 270 mrpeach/slipdec;
#X msg 152 111 devices;
#X msg 198 174 close;
#X obj 145 359 << 8;
#X obj 144 398 |;
#X floatatom 149 425 5 0 0 0 - - -, f 5;
#X obj 148 462 outlet;
#X obj 207 462 outlet;
#X obj 147 305 unpack f f f f;
#X obj 197 358 << 8;
#X obj 203 397 |;
#X floatatom 203 421 5 0 0 0 - - -, f 5;
#X obj 147 237 comport/comport 3 115200;
#X msg 301 343 connect localhost 12000;
#X floatatom 517 505 5 0 0 0 - - -, f 5;
#X msg 419 569 send /test \$1 \$2 \$3 \$4;
#X obj 548 539 pak 0 1 2 3;
#X floatatom 556 505 5 0 0 0 - - -, f 5;
#X floatatom 596 514 5 0 0 0 - - -, f 5;
#X obj 480 323 inlet;
#X obj 521 320 inlet;
#X obj 556 323 inlet;
#X obj 605 313 inlet;
#X obj -7 237 comport/comport 2 115200;
#X msg 171 147 open 3;
#X obj 704 304 mrpeach/slipenc;
#X floatatom 676 203 5 0 0 0 - - -, f 5;
#X floatatom 745 205 5 0 0 0 - - -, f 5;
#X obj 704 280 pak f f;
#X obj 705 326 speedlim 100;
#X obj 679 160 random 170;
#X floatatom 679 181 5 0 0 0 - - -, f 5;
#X obj 679 123 tgl 15 0 empty empty empty 17 7 0 10 -262144 -1 -1 1
1;
#X obj 679 140 metro 1000;
#X obj 830 312 mrpeach/slipenc;
#X obj 830 288 pak f f;
#X obj 831 334 speedlim 100;
#X floatatom 857 225 5 0 0 0 - - -, f 5;
#X floatatom 926 227 5 0 0 0 - - -, f 5;
#X obj 860 182 random 170;
#X floatatom 860 203 5 0 0 0 - - -, f 5;
#X obj 860 162 metro 1000;
#X connect 3 0 16 0;
#X connect 4 0 48 0;
#X connect 7 0 48 0;
#X connect 10 0 11 0;
#X connect 11 0 12 0;
#X connect 12 0 14 0;
#X connect 12 0 42 0;
#X connect 12 0 58 1;
#X connect 12 0 21 0;
#X connect 13 0 48 0;
#X connect 16 0 10 0;
#X connect 16 1 11 1;
#X connect 16 2 17 0;
#X connect 16 3 18 1;
#X connect 17 0 18 0;
#X connect 18 0 19 0;
#X connect 19 0 15 0;
#X connect 19 0 43 0;
#X connect 19 0 39 0;
#X connect 20 0 23 0;
#X connect 21 0 41 0;
#X connect 24 0 23 0;
#X connect 25 0 33 0;
#X connect 26 0 37 0;
#X connect 27 0 37 0;
#X connect 28 0 29 0;
#X connect 29 0 30 0;
#X connect 30 0 31 0;
#X connect 30 0 66 1;
#X connect 30 0 21 0;
#X connect 33 0 28 0;
#X connect 33 1 29 1;
#X connect 33 2 34 0;
#X connect 33 3 35 1;
#X connect 34 0 35 0;
#X connect 35 0 36 0;
#X connect 36 0 32 0;
#X connect 36 0 39 0;
#X connect 37 0 25 0;
#X connect 38 0 23 0;
#X connect 39 0 41 1;
#X connect 40 0 24 0;
#X connect 41 0 40 0;
#X connect 42 0 41 2;
#X connect 43 0 41 3;
#X connect 44 0 21 0;
#X connect 45 0 39 0;
#X connect 46 0 42 0;
#X connect 47 0 43 0;
#X connect 48 0 3 0;
#X connect 49 0 37 0;
#X connect 50 0 54 0;
#X connect 51 0 53 0;
#X connect 52 0 53 1;
#X connect 53 0 50 0;
#X connect 54 0 48 0;
#X connect 55 0 56 0;
#X connect 56 0 51 0;
#X connect 56 0 52 0;
#X connect 57 0 58 0;
#X connect 57 0 66 0;
#X connect 58 0 55 0;
#X connect 59 0 61 0;
#X connect 60 0 59 0;
#X connect 61 0 37 0;
#X connect 62 0 60 0;
#X connect 63 0 60 1;
#X connect 64 0 65 0;
#X connect 65 0 62 0;
#X connect 65 0 63 0;
#X connect 66 0 64 0;
