#N canvas 13 39 1003 657 10;
#X obj 446 581 tgl 15 0 empty empty empty 17 7 0 10 -4032 -1 -1 0 1
;
#X obj 321 626 line~;
#X msg 324 608 \$1 100;
#X obj 80 633 *~;
#X obj 131 641 *~;
#X obj 56 673 outlet~;
#X obj 187 668 outlet~;
#X obj -52 154 mtof;
#X obj -52 130 nbx 5 14 -1e+37 1e+37 0 1 empty empty empty 0 -8 0 10
-262144 -1 -1 36 256;
#X obj 937 154 mtof;
#X obj 937 130 nbx 5 14 -1e+37 1e+37 0 1 empty empty empty 0 -8 0 10
-262144 -1 -1 38 256;
#X obj 58 154 mtof;
#X obj 58 130 nbx 5 14 -1e+37 1e+37 0 1 empty empty empty 0 -8 0 10
-262144 -1 -1 70 256;
#X obj 168 154 mtof;
#X obj 168 130 nbx 5 14 -1e+37 1e+37 0 1 empty empty empty 0 -8 0 10
-262144 -1 -1 44 256;
#X obj 278 154 mtof;
#X obj 278 130 nbx 5 14 -1e+37 1e+37 0 1 empty empty empty 0 -8 0 10
-262144 -1 -1 68 256;
#X obj 387 154 mtof;
#X obj 387 130 nbx 5 14 -1e+37 1e+37 0 1 empty empty empty 0 -8 0 10
-262144 -1 -1 50 256;
#X obj 498 154 mtof;
#X obj 498 130 nbx 5 14 -1e+37 1e+37 0 1 empty empty empty 0 -8 0 10
-262144 -1 -1 58 256;
#X obj 607 154 mtof;
#X obj 607 130 nbx 5 14 -1e+37 1e+37 0 1 empty empty empty 0 -8 0 10
-262144 -1 -1 56 256;
#X obj 718 154 mtof;
#X obj 718 130 nbx 5 14 -1e+37 1e+37 0 1 empty empty empty 0 -8 0 10
-262144 -1 -1 62 256;
#X obj 828 154 mtof;
#X obj 828 130 nbx 5 14 -1e+37 1e+37 0 1 empty empty empty 0 -8 0 10
-262144 -1 -1 39 256;
#X obj 255 48 snapshot~;
#X obj 183 -82 +~ 1;
#X obj 121 -108 loadbang;
#X obj 121 -82 metro 50;
#X obj 183 -108 osc~ 0.05;
#X obj 342 -82 until;
#X msg 342 -134 10;
#X obj 342 -4 i;
#X obj 374 -4 + 1;
#X obj 342 -108 t f b;
#X obj 342 22 pack f f;
#X obj 342 48 route 1 2 3 4 5 6 7 8 9 10;
#X msg 357 -30 1;
#N canvas 0 0 450 300 (subpatch) 0;
#X array scale 7 float 1;
#A 0 0 2 3 5 7 8 10;
#X coords 0 12 6 0 200 140 1;
#X restore 498 -134 graph;
#X obj 406 -108 tabread scale;
#X obj 342 -56 t b b b;
#X obj 406 -4 +;
#X obj 406 -134 random 7;
#X obj 342 -160 metro 5000;
#X obj 200 470 hsl 128 15 0 1 0 1 empty empty empty -2 -8 0 10 -262144
-1 -1 11400 1;
#X obj 365 207 autopan;
#X obj 421 -30 + 36;
#X obj 421 -56 * 12;
#X obj 421 -82 random 3;
#X obj -36 389 random 2;
#X obj -74 389 lop~;
#X obj -74 415 lop~;
#X obj -74 441 hip~;
#X obj -74 467 hip~;
#X obj 127 467 hip~;
#X obj 127 441 hip~;
#X obj 127 415 lop~;
#X obj 127 389 lop~;
#X obj -36 415 sel 0 1;
#X obj -17 493 line;
#X obj 36 389 random 2;
#X obj 36 415 sel 0 1;
#X obj 55 493 line;
#X obj 915 104 stream~ 19000 46;
#X obj -74 207 autopan;
#X obj 36 207 autopan;
#X obj 146 207 autopan;
#X obj 256 207 autopan;
#X obj 476 207 autopan;
#X obj 585 207 autopan;
#X obj 696 207 autopan;
#X obj 806 207 autopan;
#X obj 915 207 autopan;
#X obj 183 -56 *~ 500;
#X obj 251 -108 random 2;
#X obj 251 -82 sel 0 1;
#X obj 270 -4 line;
#X obj 255 22 +~;
#X msg 251 -30 3000 5000;
#X msg 270 -56 50 5000;
#X obj -74 311 catch~ \$0-l_fx;
#X obj 127 311 catch~ \$0-r_fx;
#X obj -74 233 throw~ \$0-l_fx;
#X obj 36 233 throw~ \$0-l_fx;
#X obj 146 233 throw~ \$0-l_fx;
#X obj 256 233 throw~ \$0-l_fx;
#X obj 365 233 throw~ \$0-l_fx;
#X obj 476 233 throw~ \$0-l_fx;
#X obj 585 233 throw~ \$0-l_fx;
#X obj 696 233 throw~ \$0-l_fx;
#X obj 806 233 throw~ \$0-l_fx;
#X obj 915 233 throw~ \$0-l_fx;
#X obj -35 259 throw~ \$0-r_fx;
#X obj 75 259 throw~ \$0-r_fx;
#X obj 185 259 throw~ \$0-r_fx;
#X obj 295 259 throw~ \$0-r_fx;
#X obj 404 259 throw~ \$0-r_fx;
#X obj 515 259 throw~ \$0-r_fx;
#X obj 624 259 throw~ \$0-r_fx;
#X obj 735 259 throw~ \$0-r_fx;
#X obj 845 259 throw~ \$0-r_fx;
#X obj 954 259 throw~ \$0-r_fx;
#X obj 164 599 freezeverb 300;
#X obj -49 580 freezeverb 299;
#X obj 351 445 osc~;
#X obj 351 367 vline~;
#X obj 351 315 * 4;
#X obj 351 393 +~;
#X obj 411 367 *~;
#X msg 351 341 \$1 2500;
#X obj 411 315 osc~ 1864;
#X obj 482 445 osc~;
#X obj 482 367 vline~;
#X obj 482 315 * 4;
#X obj 482 393 +~;
#X obj 426 341 *~ 2000;
#X obj 127 363 *~;
#X obj -74 363 *~;
#X obj 476 180 vcf~ 800;
#X msg 36 467 300 2500;
#X msg 55 441 1500 2500;
#X msg -17 441 1500 2500;
#X msg -36 467 300 2500;
#X obj -74 180 vcf~ 300;
#X obj 36 180 vcf~ 400;
#X obj 146 180 vcf~ 500;
#X obj 256 180 vcf~ 600;
#X obj 365 180 vcf~ 700;
#X obj 585 180 vcf~ 300;
#X obj 696 180 vcf~ 400;
#X obj 806 180 vcf~ 500;
#X obj 915 180 vcf~ 600;
#X obj 142 285 min 500;
#X obj 142 337 / 500;
#X obj 120 599 *~ 24;
#X obj 76 599 *~ 24;
#X obj 127 493 *~ 3;
#X obj -74 493 *~ 3;
#X obj 351 419 +~;
#X obj 482 419 +~;
#X obj 411 393 osc~ 4;
#X obj 411 419 *~ 30;
#X msg 482 341 \$1 2000;
#X obj 351 471 *~ 8e-06;
#X obj 482 471 *~ 8e-06;
#X obj 474 554 inlet;
#X obj 119 -137 bng 15 250 50 0 empty empty empty 17 7 0 10 -262144
-1 -1;
#X obj -75 104 vox2~ 19500 44;
#X obj 35 104 vox2~ 18500 48;
#X obj 145 104 vox2~ 18000 50;
#X obj 255 104 vox2~ 17500 52;
#X obj 365 104 vox2~ 17000 54;
#X obj 475 104 vox2~ 16500 56;
#X obj 585 104 vox2~ 16000 58;
#X obj 695 104 vox2~ 15500 60;
#X obj 805 104 vox2~ 20000 42;
#X obj 82 652 *~ 8;
#X obj 250 661 *~ 8;
#X connect 0 0 2 0;
#X connect 1 0 4 1;
#X connect 1 0 3 1;
#X connect 2 0 1 0;
#X connect 3 0 158 0;
#X connect 4 0 159 0;
#X connect 7 0 108 0;
#X connect 7 0 125 1;
#X connect 8 0 7 0;
#X connect 9 0 133 1;
#X connect 10 0 9 0;
#X connect 11 0 115 0;
#X connect 11 0 126 1;
#X connect 12 0 11 0;
#X connect 13 0 127 1;
#X connect 14 0 13 0;
#X connect 15 0 128 1;
#X connect 16 0 15 0;
#X connect 17 0 129 1;
#X connect 18 0 17 0;
#X connect 19 0 120 1;
#X connect 20 0 19 0;
#X connect 21 0 130 1;
#X connect 22 0 21 0;
#X connect 23 0 131 1;
#X connect 24 0 23 0;
#X connect 25 0 132 1;
#X connect 26 0 25 0;
#X connect 27 0 65 0;
#X connect 27 0 149 0;
#X connect 27 0 150 0;
#X connect 27 0 151 0;
#X connect 27 0 152 0;
#X connect 27 0 153 0;
#X connect 27 0 154 0;
#X connect 27 0 155 0;
#X connect 27 0 156 0;
#X connect 27 0 157 0;
#X connect 28 0 75 0;
#X connect 28 0 117 0;
#X connect 29 0 30 0;
#X connect 29 0 45 0;
#X connect 30 0 27 0;
#X connect 31 0 28 0;
#X connect 32 0 42 0;
#X connect 33 0 36 0;
#X connect 34 0 35 0;
#X connect 34 0 37 0;
#X connect 35 0 34 1;
#X connect 36 0 32 0;
#X connect 36 1 39 0;
#X connect 37 0 38 0;
#X connect 38 0 8 0;
#X connect 38 1 12 0;
#X connect 38 2 14 0;
#X connect 38 3 16 0;
#X connect 38 4 18 0;
#X connect 38 5 20 0;
#X connect 38 6 22 0;
#X connect 38 7 24 0;
#X connect 38 8 26 0;
#X connect 38 9 10 0;
#X connect 39 0 34 1;
#X connect 41 0 43 0;
#X connect 42 0 34 0;
#X connect 42 1 44 0;
#X connect 42 2 50 0;
#X connect 43 0 37 1;
#X connect 44 0 41 0;
#X connect 45 0 33 0;
#X connect 45 0 51 0;
#X connect 45 0 62 0;
#X connect 45 0 76 0;
#X connect 46 0 104 1;
#X connect 46 0 105 1;
#X connect 47 0 88 0;
#X connect 47 1 98 0;
#X connect 48 0 43 1;
#X connect 49 0 48 0;
#X connect 50 0 49 0;
#X connect 51 0 60 0;
#X connect 52 0 53 0;
#X connect 53 0 54 0;
#X connect 54 0 55 0;
#X connect 55 0 139 0;
#X connect 56 0 138 0;
#X connect 57 0 56 0;
#X connect 58 0 57 0;
#X connect 59 0 58 0;
#X connect 60 0 124 0;
#X connect 60 1 123 0;
#X connect 61 0 52 1;
#X connect 61 0 53 1;
#X connect 61 0 54 1;
#X connect 61 0 55 1;
#X connect 62 0 63 0;
#X connect 63 0 121 0;
#X connect 63 1 122 0;
#X connect 64 0 59 1;
#X connect 64 0 58 1;
#X connect 64 0 57 1;
#X connect 64 0 56 1;
#X connect 65 0 133 0;
#X connect 66 0 84 0;
#X connect 66 1 94 0;
#X connect 67 0 85 0;
#X connect 67 1 95 0;
#X connect 68 0 86 0;
#X connect 68 1 96 0;
#X connect 69 0 87 0;
#X connect 69 1 97 0;
#X connect 70 0 89 0;
#X connect 70 1 99 0;
#X connect 71 0 90 0;
#X connect 71 1 100 0;
#X connect 72 0 91 0;
#X connect 72 1 101 0;
#X connect 73 0 92 0;
#X connect 73 1 102 0;
#X connect 74 0 93 0;
#X connect 74 1 103 0;
#X connect 75 0 79 0;
#X connect 76 0 77 0;
#X connect 77 0 80 0;
#X connect 77 1 81 0;
#X connect 78 0 79 1;
#X connect 78 0 134 0;
#X connect 79 0 27 0;
#X connect 80 0 78 0;
#X connect 81 0 78 0;
#X connect 82 0 119 0;
#X connect 83 0 118 0;
#X connect 104 0 3 0;
#X connect 104 1 4 0;
#X connect 105 0 3 0;
#X connect 105 1 4 0;
#X connect 106 0 145 0;
#X connect 107 0 109 0;
#X connect 108 0 111 0;
#X connect 109 0 140 0;
#X connect 110 0 109 1;
#X connect 110 0 116 1;
#X connect 111 0 107 0;
#X connect 112 0 110 0;
#X connect 113 0 146 0;
#X connect 114 0 116 0;
#X connect 115 0 144 0;
#X connect 116 0 141 0;
#X connect 117 0 110 1;
#X connect 118 0 59 0;
#X connect 118 0 136 0;
#X connect 119 0 52 0;
#X connect 119 0 137 0;
#X connect 120 0 70 0;
#X connect 121 0 64 0;
#X connect 122 0 64 0;
#X connect 123 0 61 0;
#X connect 124 0 61 0;
#X connect 125 0 66 0;
#X connect 126 0 67 0;
#X connect 127 0 68 0;
#X connect 128 0 69 0;
#X connect 129 0 47 0;
#X connect 130 0 71 0;
#X connect 131 0 72 0;
#X connect 132 0 73 0;
#X connect 133 0 74 0;
#X connect 134 0 135 0;
#X connect 135 0 118 1;
#X connect 135 0 119 1;
#X connect 136 0 4 0;
#X connect 137 0 3 0;
#X connect 138 0 104 0;
#X connect 139 0 105 0;
#X connect 140 0 106 0;
#X connect 141 0 113 0;
#X connect 142 0 143 0;
#X connect 143 0 140 1;
#X connect 143 0 141 1;
#X connect 144 0 114 0;
#X connect 145 0 105 0;
#X connect 146 0 104 0;
#X connect 147 0 0 0;
#X connect 147 0 148 0;
#X connect 148 0 30 0;
#X connect 148 0 45 0;
#X connect 149 0 125 0;
#X connect 150 0 126 0;
#X connect 151 0 127 0;
#X connect 152 0 128 0;
#X connect 153 0 129 0;
#X connect 154 0 120 0;
#X connect 155 0 130 0;
#X connect 156 0 131 0;
#X connect 157 0 132 0;
#X connect 158 0 5 0;
#X connect 159 0 6 0;
