#N canvas 0 23 1174 731 10;
#X obj 329 262 *~;
#X obj 301 253 *~;
#X obj 332 235 *~;
#X obj 421 235 *~;
#X obj 333 176 osc~ 0.5;
#X obj 421 175 osc~ 0.3;
#X obj 134 248 *~;
#X obj 102 245 *~;
#X obj 133 227 *~;
#X obj 222 227 *~;
#X obj 134 168 osc~ 0.1;
#X obj 222 167 osc~ 0.3;
#X obj 749 262 *~;
#X obj 722 261 *~;
#X obj 753 243 *~;
#X obj 842 243 *~;
#X obj 754 184 osc~ 0.5;
#X obj 877 171 osc~ 0.3;
#X obj 550 254 *~;
#X obj 523 253 *~;
#X obj 554 235 *~;
#X obj 643 235 *~;
#X obj 555 176 osc~ 0.1;
#X obj 643 175 osc~ 0.3;
#X obj 413 14 inlet;
#X obj 369 67 / 700;
#X floatatom 227 139 5 0 0 0 - - -, f 5;
#X obj 416 66 / 500;
#X obj 459 65 / 800;
#X obj 294 641 outlet~;
#X obj 429 679 outlet~;
#X obj 237 203 lfo~ 0.1 0 1;
#X obj 658 211 lfo~ 0.1 0 1;
#X obj 857 219 lfo~ 0.3 0 1;
#X obj 768 218 lfo~ 0.5 0 1;
#X obj 148 202 lfo~ 0.8 0 1;
#X obj 569 210 lfo~ 2 0 1;
#X obj 123 374 *~;
#X obj 212 374 *~;
#X obj 124 315 osc~ 0.1;
#X obj 212 314 osc~ 0.3;
#X obj 84 413 *~;
#X obj 172 395 *~;
#X obj 138 349 lfo~ 20 0 1;
#X obj 227 350 lfo~ 50 0 1;
#X text 68 33 34 \, 68 \, 102 \, 136 \, 170 \, 204 \, 238 \, 272 \,
306 \, 340 \, 374 \, 408 \, 442 \, 476;
#X obj 108 146 osc~ 308;
#X obj 529 154 osc~ 340;
#X obj 728 162 osc~ 68;
#X obj 98 293 osc~ 476;
#X obj 701 -21 tgl 15 0 empty empty empty 17 7 0 10 -262144 -1 -1 0
1;
#X obj 700 -3 metro;
#X floatatom 735 -24 5 0 0 0 - - -, f 5;
#X obj 700 18 f;
#X obj 700 66 hradio 16 1 0 4 empty empty empty 0 -8 0 10 -262144 -1
-1 3;
#X obj 749 20 + 1;
#X obj 705 129 tgl 15 0 empty empty empty 17 7 0 10 -262144 -1 -1 0
1;
#X obj 683 129 tgl 15 0 empty empty empty 17 7 0 10 -262144 -1 -1 0
1;
#X obj 748 129 tgl 15 0 empty empty empty 17 7 0 10 -262144 -1 -1 0
1;
#X obj 726 129 tgl 15 0 empty empty empty 17 7 0 10 -262144 -1 -1 0
1;
#X obj 699 93 sel 0 1 2 3;
#X obj 700 40 mod 4;
#X text 793 87 random sur metro;
#X floatatom 788 -33 5 0 0 0 - - -, f 5;
#X obj 848 -30 tgl 15 0 empty empty empty 17 7 0 10 -262144 -1 -1 0
1;
#X obj 805 15 metro 100;
#X obj 810 300 tgl 15 0 empty empty empty 17 7 0 10 -4032 -1 -1 0 1
;
#X obj 810 340 line~;
#X msg 810 321 \$1 1000;
#X obj 740 303 *~;
#X obj 713 302 *~;
#X obj 579 294 tgl 15 0 empty empty empty 17 7 0 10 -4032 -1 -1 0 1
;
#X obj 579 334 line~;
#X msg 579 315 \$1 1000;
#X obj 509 297 *~;
#X obj 482 296 *~;
#X obj 400 293 tgl 15 0 empty empty empty 17 7 0 10 -4032 -1 -1 0 1
;
#X obj 400 333 line~;
#X obj 330 296 *~;
#X obj 303 295 *~;
#X obj 255 254 tgl 15 0 empty empty empty 17 7 0 10 -4032 -1 -1 0 1
;
#X obj 255 294 line~;
#X msg 255 275 \$1 1000;
#X obj 185 258 *~;
#X obj 158 256 *~;
#X obj 195 463 tgl 15 0 empty empty empty 17 7 0 10 -4032 -1 -1 0 1
;
#X obj 195 503 line~;
#X msg 195 484 \$1 1000;
#X obj 132 443 *~;
#X obj 67 458 *~;
#X obj 101 420 *~ 0.3;
#X obj 150 411 *~ 0.3;
#X obj 887 -14 random 500;
#X obj 307 154 osc~ 238;
#X obj 349 222 lfo~ 1 0 1;
#X obj 436 211 lfo~ 0.8 0 1;
#X msg 400 314 \$1 1000;
#X obj 818 618 tgl 15 0 empty empty empty 17 7 0 10 -4032 -1 -1 0 1
;
#X obj 818 658 line~;
#X msg 818 639 \$1 1000;
#X obj 519 35 inlet go;
#X msg 727 -46 500;
#X obj 637 604 hsl 128 15 0 1 0 1 empty empty empty -2 -8 0 10 -262144
-1 -1 8000 1;
#X obj 629 626 freezeverb 299;
#X obj 768 404 loadbang;
#N canvas 62 23 1218 755 graindelay3 0;
#X obj 92 686 outlet~;
#X obj 224 688 outlet~;
#X obj 106 119 hsl 200 15 0 1 0 1 empty empty rate 2 7 0 10 -262144
-1 -1 1400 1;
#X obj -42 319 t f f;
#X obj -54 346 *;
#X obj -68 377 t b f;
#X obj -139 538 metro 30;
#X obj -67 483 * 1000;
#X obj -76 517 clip 1 1000;
#X obj 250 216 nbx 3 14 0 48 0 1 empty empty tpr -20 7 0 10 -262144
-1 -1 0 256;
#X obj 106 216 hsl 64 15 0 1 0 1 empty empty pan_rnd 2 7 0 10 -262144
-1 -1 5600 1;
#X obj -134 507 delay 10;
#X obj -60 458 +;
#X obj -128 386 random;
#X obj -98 314 *;
#X obj -92 286 t f f;
#X obj -180 204 inlet;
#X obj -179 225 t b;
#X text -185 183 metro sync;
#X obj -209 490 delay 0;
#X obj 106 136 hsl 200 10 0 1 0 1 empty empty rate_rnd 2 5 0 10 -262144
-1 -1 12900 1;
#X obj -98 335 *;
#X obj -119 358 * 1000;
#X obj -109 425 / 1000;
#X obj -146 460 clip 10 1000;
#X obj 167 169 hsl 64 15 0 0.49 0 1 empty empty ramp 2 7 0 10 -262144
-1 -1 4800 1;
#X obj 190 216 nbx 3 14 -36 36 0 1 empty empty tp -15 7 0 10 -262144
-1 -1 0 256;
#X floatatom 103 170 9 0 0 0 - - -, f 9;
#X obj 415 122 inlet~;
#X obj 440 420 / 1000;
#X obj 463 453 *;
#X obj 498 416 samplerate~;
#X obj 511 230 loadbang;
#X obj 495 465 / 1000;
#X obj 469 500 /;
#X obj 106 151 hsl 200 15 0 1 0 1 empty empty delaypos 2 7 0 10 -262144
-1 -1 4861 0;
#X obj -32 196 *;
#X obj 103 187 nbx 5 14 1 1000 0 1 empty empty empty 0 -8 0 10 -262144
-1 -1 215 256;
#X obj 162 187 nbx 5 14 0 500 0 1 empty empty empty 0 -8 0 10 -262144
-1 -1 37 256;
#X obj 254 172 nbx 5 14 0 500 0 1 empty empty pr -15 7 0 10 -262144
-1 -1 313 256;
#X text 103 201 len/rnd (ms);
#X obj 279 336 delay 1;
#X obj 49 281 /;
#X msg 27 107 set \$1;
#X msg 51 214 set \$1;
#X obj 75 459 change;
#X obj 51 38 inlet;
#X text 48 17 pos (0..1);
#X obj 250 33 inlet;
#X obj 200 286 +;
#X obj 208 243 t b f;
#X text 253 13 tp;
#X text 419 105 audio in;
#X obj 216 102 nbx 5 14 500 20000 0 1 empty empty maxt -25 7 0 10 -262144
-1 -1 2018 256;
#X obj 293 102 tgl 15 0 empty empty frz -20 7 0 10 -204800 -1 -1 0
1;
#X obj 304 22 loadbang;
#X msg 299 52 0;
#X obj 97 532 +;
#X obj 76 482 t b f;
#X obj 27 368 phasor~;
#X obj 399 50 / 1000;
#X obj 357 75 t b f;
#X msg 359 97 1;
#X obj 370 119 /;
#X obj 29 402 snapshot~;
#X obj 33 443 *;
#X obj 120 623 abs_graindelay_particles20;
#X obj 34 478 *;
#X obj 120 38 inlet;
#X text 119 16 pos mod (-0.5..0.5);
#X obj -37 169 +;
#X obj -58 108 t b f;
#X obj -119 132 metro 200;
#X obj -96 218 f;
#X obj 231 194 hsl 64 15 0 1 0 1 empty empty feedb 2 7 0 10 -262144
-1 -1 2400 1;
#X connect 2 0 3 0;
#X connect 3 0 4 0;
#X connect 3 1 4 1;
#X connect 4 0 5 0;
#X connect 4 0 21 1;
#X connect 5 0 11 0;
#X connect 5 1 12 1;
#X connect 6 0 19 0;
#X connect 6 0 64 0;
#X connect 6 0 66 0;
#X connect 7 0 8 0;
#X connect 7 0 24 0;
#X connect 8 0 6 1;
#X connect 9 0 66 7;
#X connect 10 0 66 8;
#X connect 11 0 6 0;
#X connect 12 0 7 0;
#X connect 13 0 23 0;
#X connect 14 0 21 0;
#X connect 15 0 14 0;
#X connect 15 1 14 1;
#X connect 16 0 17 0;
#X connect 17 0 6 0;
#X connect 19 0 13 0;
#X connect 20 0 15 0;
#X connect 21 0 22 0;
#X connect 22 0 13 1;
#X connect 23 0 12 0;
#X connect 24 0 11 1;
#X connect 25 0 66 3;
#X connect 26 0 49 0;
#X connect 27 0 42 0;
#X connect 27 0 45 0;
#X connect 28 0 66 12;
#X connect 29 0 30 0;
#X connect 30 0 34 0;
#X connect 31 0 30 1;
#X connect 31 0 33 0;
#X connect 32 0 31 0;
#X connect 33 0 34 1;
#X connect 34 0 36 1;
#X connect 34 0 41 0;
#X connect 34 0 42 1;
#X connect 35 0 70 0;
#X connect 36 0 45 0;
#X connect 36 0 73 1;
#X connect 37 0 66 1;
#X connect 38 0 66 2;
#X connect 39 0 66 5;
#X connect 41 0 35 0;
#X connect 42 0 43 0;
#X connect 43 0 35 0;
#X connect 44 0 27 0;
#X connect 45 0 58 0;
#X connect 46 0 35 0;
#X connect 48 0 50 0;
#X connect 49 0 66 6;
#X connect 50 0 49 0;
#X connect 50 1 49 1;
#X connect 53 0 29 0;
#X connect 53 0 60 0;
#X connect 53 0 65 1;
#X connect 53 0 66 10;
#X connect 54 0 59 1;
#X connect 54 0 66 9;
#X connect 54 0 67 1;
#X connect 55 0 56 0;
#X connect 55 0 72 0;
#X connect 56 0 54 0;
#X connect 57 0 66 4;
#X connect 58 0 57 0;
#X connect 58 1 57 1;
#X connect 59 0 64 0;
#X connect 60 0 61 0;
#X connect 61 0 62 0;
#X connect 61 1 63 1;
#X connect 62 0 63 0;
#X connect 63 0 59 0;
#X connect 64 0 65 0;
#X connect 65 0 67 0;
#X connect 66 0 0 0;
#X connect 66 1 1 0;
#X connect 67 0 57 0;
#X connect 68 0 71 0;
#X connect 70 0 36 0;
#X connect 71 0 70 0;
#X connect 71 1 70 1;
#X connect 72 0 73 0;
#X connect 73 0 44 0;
#X connect 74 0 66 11;
#X coords 0 -1 1 1 210 135 1 100 100;
#X restore 712 460 pd graindelay3;
#N canvas 567 269 891 641 lfo1rnd 0;
#X obj -41 455 *;
#X obj -45 -148 loadbang;
#X msg 48 -121 bang;
#X obj -42 499 outlet;
#X obj 107 114 hsl 128 10 0.01 10 1 1 empty empty frq 0 5 0 10 -262144
-1 -1 1600 1;
#X obj 107 126 hsl 128 10 0 1 0 1 empty empty am 0 5 0 10 -262144 -1
-1 3000 1;
#X obj 13 -91 metro 5;
#X obj -51 37 float;
#X obj 2 76 / 200;
#X obj -9 51 wrap;
#X obj -66 264 cos;
#X obj -57 133 * 6.28319;
#X obj 57 -147 inlet;
#X text 61 -168 sync;
#X obj 107 138 hsl 128 10 0 1 0 1 empty empty rnd 0 5 0 10 -262144
-1 -1 7500 1;
#X obj -52 419 line;
#X obj -51 395 pack f 5;
#X obj -45 79 + 0.01;
#X obj 28 106 random 1000;
#X obj -52 348 *;
#X obj -41 219 -;
#X msg -40 192 1;
#X obj -32 169 t b f;
#X obj -49 374 +;
#X obj 3 292 *;
#X obj -48 109 t f f;
#X obj -17 350 line;
#X obj -1 318 pack f f;
#X obj 118 208 /;
#X msg 104 187 1;
#X obj 112 168 t b f;
#X obj 113 231 * 5;
#X obj 119 259 *;
#X msg 194 196 1;
#X obj 203 224 -;
#X obj 32 205 clip -1 1;
#X obj 30 163 * 10000;
#X obj 8 233 *;
#X obj 18 131 / 1000;
#X obj 133 1 change;
#X obj 68 53 select -1 1;
#X obj 189 175 t b b f;
#X connect 0 0 3 0;
#X connect 1 0 6 0;
#X connect 2 0 6 0;
#X connect 4 0 8 0;
#X connect 5 0 0 1;
#X connect 6 0 7 0;
#X connect 7 0 17 0;
#X connect 8 0 17 1;
#X connect 8 0 30 0;
#X connect 9 0 7 1;
#X connect 10 0 19 0;
#X connect 10 0 36 0;
#X connect 11 0 10 0;
#X connect 12 0 2 0;
#X connect 14 0 22 0;
#X connect 14 0 24 1;
#X connect 14 0 41 0;
#X connect 15 0 0 0;
#X connect 16 0 15 0;
#X connect 17 0 9 0;
#X connect 17 0 25 0;
#X connect 18 0 38 0;
#X connect 19 0 23 0;
#X connect 20 0 19 1;
#X connect 21 0 20 0;
#X connect 22 0 21 0;
#X connect 22 1 20 1;
#X connect 23 0 16 0;
#X connect 24 0 27 0;
#X connect 25 0 11 0;
#X connect 26 0 23 1;
#X connect 27 0 26 0;
#X connect 28 0 31 0;
#X connect 29 0 28 0;
#X connect 30 0 29 0;
#X connect 30 1 28 1;
#X connect 31 0 32 0;
#X connect 32 0 27 1;
#X connect 33 0 34 0;
#X connect 34 0 32 1;
#X connect 35 0 37 1;
#X connect 35 0 39 0;
#X connect 36 0 35 0;
#X connect 37 0 24 0;
#X connect 38 0 37 0;
#X connect 39 0 40 0;
#X connect 40 0 18 0;
#X connect 40 1 18 0;
#X connect 41 0 29 0;
#X connect 41 1 33 0;
#X connect 41 2 34 1;
#X coords 0 -1 1 1 140 50 1 100 100;
#X restore 875 364 pd lfo1rnd;
#X obj 875 420 * 0.5;
#X obj 390 631 *~;
#X obj 464 657 *~;
#X obj 399 574 *~ 0.1;
#X obj 448 588 *~ 0.1;
#X connect 0 0 78 0;
#X connect 1 0 79 0;
#X connect 2 0 1 1;
#X connect 3 0 0 1;
#X connect 4 0 2 0;
#X connect 5 0 3 0;
#X connect 6 0 83 0;
#X connect 7 0 84 0;
#X connect 8 0 7 1;
#X connect 9 0 6 1;
#X connect 10 0 8 0;
#X connect 11 0 9 0;
#X connect 12 0 69 0;
#X connect 13 0 70 0;
#X connect 14 0 13 1;
#X connect 15 0 12 1;
#X connect 16 0 14 0;
#X connect 17 0 15 0;
#X connect 18 0 74 0;
#X connect 19 0 75 0;
#X connect 20 0 19 1;
#X connect 21 0 18 1;
#X connect 22 0 20 0;
#X connect 23 0 21 0;
#X connect 24 0 27 0;
#X connect 24 0 28 0;
#X connect 24 0 25 0;
#X connect 25 0 26 0;
#X connect 25 0 105 0;
#X connect 25 0 105 1;
#X connect 25 0 106 0;
#X connect 25 0 105 3;
#X connect 25 0 105 2;
#X connect 31 0 9 1;
#X connect 32 0 21 1;
#X connect 33 0 15 1;
#X connect 34 0 14 1;
#X connect 35 0 8 1;
#X connect 36 0 20 1;
#X connect 37 0 41 1;
#X connect 38 0 42 1;
#X connect 39 0 37 0;
#X connect 40 0 38 0;
#X connect 41 0 90 0;
#X connect 42 0 91 0;
#X connect 43 0 37 1;
#X connect 44 0 38 1;
#X connect 46 0 7 0;
#X connect 46 0 6 0;
#X connect 47 0 19 0;
#X connect 47 0 18 0;
#X connect 48 0 13 0;
#X connect 48 0 12 0;
#X connect 49 0 41 0;
#X connect 49 0 42 0;
#X connect 50 0 51 0;
#X connect 51 0 53 0;
#X connect 52 0 51 1;
#X connect 53 0 55 0;
#X connect 53 0 61 0;
#X connect 54 0 60 0;
#X connect 55 0 53 1;
#X connect 56 0 85 0;
#X connect 56 0 66 0;
#X connect 57 0 66 0;
#X connect 57 0 80 0;
#X connect 58 0 71 0;
#X connect 58 0 66 0;
#X connect 58 0 76 0;
#X connect 59 0 85 0;
#X connect 59 0 76 0;
#X connect 60 0 57 0;
#X connect 60 0 58 0;
#X connect 60 1 56 0;
#X connect 60 1 57 0;
#X connect 60 2 56 0;
#X connect 60 2 59 0;
#X connect 60 3 59 0;
#X connect 60 3 58 0;
#X connect 61 0 54 0;
#X connect 63 0 52 0;
#X connect 64 0 65 0;
#X connect 65 0 92 0;
#X connect 66 0 68 0;
#X connect 67 0 70 1;
#X connect 67 0 69 1;
#X connect 68 0 67 0;
#X connect 69 0 105 4;
#X connect 70 0 105 4;
#X connect 71 0 73 0;
#X connect 72 0 75 1;
#X connect 72 0 74 1;
#X connect 73 0 72 0;
#X connect 74 0 105 4;
#X connect 75 0 105 4;
#X connect 76 0 96 0;
#X connect 77 0 79 1;
#X connect 77 0 78 1;
#X connect 79 0 105 4;
#X connect 80 0 82 0;
#X connect 81 0 84 1;
#X connect 81 0 83 1;
#X connect 82 0 81 0;
#X connect 83 0 105 4;
#X connect 84 0 105 4;
#X connect 85 0 87 0;
#X connect 86 0 89 1;
#X connect 86 0 88 1;
#X connect 87 0 86 0;
#X connect 88 0 105 4;
#X connect 89 0 105 4;
#X connect 90 0 89 0;
#X connect 91 0 88 0;
#X connect 92 0 65 1;
#X connect 92 0 63 0;
#X connect 93 0 1 0;
#X connect 93 0 0 0;
#X connect 94 0 2 1;
#X connect 95 0 3 1;
#X connect 96 0 77 0;
#X connect 97 0 99 0;
#X connect 98 0 109 1;
#X connect 98 0 108 1;
#X connect 99 0 98 0;
#X connect 100 0 97 0;
#X connect 100 0 50 0;
#X connect 100 0 101 0;
#X connect 101 0 52 0;
#X connect 102 0 103 1;
#X connect 104 0 105 0;
#X connect 105 0 110 0;
#X connect 105 1 111 0;
#X connect 106 0 107 0;
#X connect 107 0 105 2;
#X connect 108 0 29 0;
#X connect 109 0 30 0;
#X connect 110 0 108 0;
#X connect 111 0 109 0;
