#N canvas 254 23 1026 564 10;
#X obj 155 194 noise~;
#X obj 123 530 outlet~;
#X obj 192 529 outlet~;
#X obj 49 215 osc~ 40;
#X floatatom 231 123 5 0 0 0 - - -, f 5;
#X obj 156 243 bob~;
#X floatatom 230 234 5 0 0 0 - - -, f 5;
#X obj 230 169 phasor~;
#X obj 230 146 sig~ 890;
#X obj 343 235 osc~ 240;
#X obj 568 210 osc~ 960;
#X obj 670 210 osc~ 1910;
#X obj 185 320 *~ 0.3;
#X obj 563 237 chorus;
#X floatatom 629 210 5 0 0 0 - - -, f 5;
#X obj 679 231 chorus;
#X floatatom 747 215 5 0 0 0 - - -, f 5;
#X obj 49 236 *~ 4;
#X obj 448 211 lfo~ 0.4 475 485;
#X obj 440 349 *~ 0.5;
#X obj 228 212 lfo~ 0.1 200 1500;
#X obj 371 109 int;
#X obj 230 191 chorus;
#X floatatom 280 169 5 0 0 0 - - -, f 5;
#X floatatom 369 189 5 0 0 0 - - -, f 5;
#X floatatom 427 189 5 0 0 0 - - -, f 5;
#X obj 344 212 lfo~ 0.5 235 245;
#X obj 306 360 *~;
#X obj 230 51 noise~;
#X obj 230 31 metro 250;
#X obj 230 11 tgl 15 0 empty empty empty 17 7 0 10 -262144 -1 -1 0
1;
#X obj 545 342 *~;
#X obj 428 169 / 15;
#X obj 448 237 osc~ 480;
#X obj 378 72 inlet;
#X obj 632 175 / 5;
#X floatatom 379 139 5 0 0 0 - - -, f 5;
#X obj 145 131 / 700;
#X obj 48 193 lfo~ 0.6 38 43;
#X obj 625 398 tgl 15 0 empty empty empty 17 7 0 10 -4032 -1 -1 0 1
;
#X obj 200 478 line~;
#X obj 135 450 *~;
#X obj 184 452 *~;
#X msg 209 457 \$1 1000;
#X obj 446 81 inlet go;
#X obj 370 169 / 1;
#X floatatom 650 60 5 0 0 0 - - -, f 5;
#X obj 650 18 loadbang;
#X msg 650 40 1;
#X obj 625 98 /;
#X floatatom 625 118 10 0 0 0 - - -, f 10;
#X obj 613 78 f;
#X obj 613 46 t b f;
#X text 697 102 value;
#X floatatom 640 156 5 0 0 0 - - -, f 5;
#X obj 625 138 * 4000;
#X obj 129 503 *~ 0.3;
#X obj 181 508 *~ 0.3;
#X connect 0 0 5 0;
#X connect 3 0 17 0;
#X connect 4 0 8 0;
#X connect 5 0 12 0;
#X connect 6 0 5 2;
#X connect 7 0 22 0;
#X connect 8 0 7 0;
#X connect 9 0 42 0;
#X connect 9 0 41 0;
#X connect 10 0 13 0;
#X connect 11 0 15 0;
#X connect 12 0 42 0;
#X connect 12 0 41 0;
#X connect 13 0 19 0;
#X connect 13 0 31 0;
#X connect 14 0 13 1;
#X connect 15 0 19 0;
#X connect 15 0 31 1;
#X connect 16 0 15 1;
#X connect 17 0 42 0;
#X connect 17 0 41 0;
#X connect 18 0 33 0;
#X connect 19 0 12 0;
#X connect 20 0 5 1;
#X connect 21 0 36 0;
#X connect 21 0 35 0;
#X connect 22 0 5 0;
#X connect 23 0 22 1;
#X connect 25 0 18 0;
#X connect 27 0 41 0;
#X connect 27 0 42 0;
#X connect 29 0 28 0;
#X connect 30 0 29 0;
#X connect 31 0 42 0;
#X connect 31 0 41 0;
#X connect 32 0 25 0;
#X connect 33 0 12 0;
#X connect 33 0 27 1;
#X connect 34 0 21 0;
#X connect 35 0 16 0;
#X connect 36 0 14 0;
#X connect 36 0 32 0;
#X connect 36 0 37 0;
#X connect 36 0 45 0;
#X connect 36 0 4 0;
#X connect 36 0 52 0;
#X connect 37 0 38 0;
#X connect 37 0 20 0;
#X connect 38 0 3 0;
#X connect 39 0 43 0;
#X connect 40 0 41 1;
#X connect 40 0 42 1;
#X connect 41 0 56 0;
#X connect 42 0 57 0;
#X connect 43 0 40 0;
#X connect 44 0 39 0;
#X connect 45 0 24 0;
#X connect 46 0 51 0;
#X connect 47 0 48 0;
#X connect 48 0 46 0;
#X connect 49 0 50 0;
#X connect 50 0 55 0;
#X connect 51 0 49 0;
#X connect 52 0 51 0;
#X connect 52 1 49 1;
#X connect 54 0 9 0;
#X connect 55 0 54 0;
#X connect 56 0 1 0;
#X connect 57 0 2 0;
