#N canvas 0 23 1199 742 10;
#X obj 229 183 mtof;
#X obj 231 203 osc~;
#X msg 192 151 48;
#X msg 251 150 57;
#X obj 210 353 *~;
#X obj 371 166 phasor~ 0.3;
#X obj 445 170 pink~;
#X obj 382 189 min~;
#X obj 227 330 lop~ 40;
#X obj 569 190 mtof;
#X obj 569 213 osc~;
#X msg 547 158 48;
#X msg 579 158 57;
#X obj 587 324 *~;
#X obj 700 240 pink~;
#X obj 623 256 min~;
#X obj 622 277 lop~ 40;
#X obj 494 724 outlet~;
#X obj 415 724 outlet~;
#X obj 388 355 min~;
#X obj 623 233 phasor~ 0.2;
#X msg 643 155 52;
#X obj 679 515 *~;
#X obj 884 416 lop~ 40;
#X obj 679 537 *~ 0.8;
#X obj 796 151 random 80;
#X obj 796 172 / 100;
#X obj 796 130 metro 800;
#X obj 796 109 tgl 15 0 empty empty empty 17 7 0 10 -262144 -1 -1 0
1;
#X obj 716 115 random 80;
#X obj 716 97 metro 800;
#X obj 715 77 tgl 15 0 empty empty empty 17 7 0 10 -262144 -1 -1 0
1;
#X obj 484 409 vline~;
#X msg 507 381 \$1 300;
#X obj 716 137 / 300;
#X obj 882 294 random 80;
#X obj 882 273 metro 800;
#X obj 881 255 tgl 15 0 empty empty empty 17 7 0 10 -262144 -1 -1 0
1;
#X obj 882 315 * 10;
#X obj 266 203 phasor~;
#X msg 220 150 69;
#X obj 482 215 phasor~;
#X obj 401 290 *~;
#X obj 668 381 delread~ qqq 120;
#X obj 400 477 delwrite~ qqq 200;
#X obj 674 455 delread~ qqq 200;
#X obj 181 517 delwrite~ www 600;
#X obj 294 608 *~;
#X obj 257 557 delread~ www 600;
#X obj 472 433 vcf~ 20;
#X msg 611 156 62;
#X obj 591 102 random 4;
#X obj 587 124 select 0 1 2 3;
#X obj 506 42 metro 3000;
#X obj 496 25 tgl 15 0 empty empty empty 17 7 0 10 -262144 -1 -1 0
1;
#X obj 510 85 random 6000;
#X obj 458 67 delay;
#X msg 280 152 53;
#X obj 333 64 random 4;
#X obj 832 516 vd~ www;
#X obj 833 495 vline~;
#X obj 857 336 * 20;
#X obj 620 682 *~ 0.8;
#X obj 348 429 osc~;
#X obj 347 407 mtof;
#X msg 348 387 24;
#X obj 454 343 pink~;
#X obj 454 362 lop~ 50;
#X obj 730 627 pink~;
#X obj 727 645 lop~ 150;
#X obj 21 402 delread~ www;
#X obj 585 410 vline~;
#X msg 608 382 \$1 300;
#X obj 573 434 vcf~ 20;
#X obj 796 195 * 100;
#X obj 542 331 *~;
#X obj 329 86 select 0 1 2 3;
#X floatatom 124 105 5 0 0 0 - - -, f 5;
#X obj 154 39 inlet;
#X obj 387 566 *~ 0.05;
#X obj 862 56 tgl 15 0 empty empty empty 17 7 0 10 -262144 -1 -1 0
1;
#X obj 853 32 inlet;
#X obj 984 497 tgl 15 0 empty empty empty 17 7 0 10 -4032 -1 -1 0 1
;
#X obj 960 543 line~;
#X msg 969 522 \$1 1000;
#X obj 444 663 *~;
#X obj 493 660 *~;
#X obj 124 125 * 500;
#X obj 53 440 bp~ 0.5;
#X obj 433 687 *~ 0.5;
#X obj 497 691 *~ 0.5;
#X connect 0 0 1 0;
#X connect 0 0 39 0;
#X connect 1 0 4 0;
#X connect 1 0 19 0;
#X connect 1 0 75 0;
#X connect 2 0 0 0;
#X connect 3 0 0 0;
#X connect 4 0 85 0;
#X connect 5 0 7 0;
#X connect 5 0 19 0;
#X connect 6 0 7 1;
#X connect 7 0 8 0;
#X connect 8 0 4 1;
#X connect 9 0 10 0;
#X connect 9 0 41 0;
#X connect 10 0 13 0;
#X connect 10 0 19 1;
#X connect 10 0 75 1;
#X connect 11 0 9 0;
#X connect 12 0 9 0;
#X connect 13 0 86 0;
#X connect 14 0 15 1;
#X connect 15 0 16 0;
#X connect 16 0 13 1;
#X connect 19 0 44 0;
#X connect 19 0 49 0;
#X connect 20 0 15 0;
#X connect 20 0 19 1;
#X connect 20 0 23 0;
#X connect 21 0 9 0;
#X connect 22 0 24 0;
#X connect 23 0 22 1;
#X connect 24 0 44 0;
#X connect 25 0 26 0;
#X connect 25 0 74 0;
#X connect 26 0 20 0;
#X connect 27 0 25 0;
#X connect 28 0 27 0;
#X connect 29 0 34 0;
#X connect 30 0 29 0;
#X connect 31 0 30 0;
#X connect 32 0 49 1;
#X connect 33 0 32 0;
#X connect 34 0 5 0;
#X connect 35 0 38 0;
#X connect 35 0 61 0;
#X connect 36 0 35 0;
#X connect 37 0 36 0;
#X connect 38 0 33 0;
#X connect 39 0 42 0;
#X connect 40 0 0 0;
#X connect 41 0 42 1;
#X connect 42 0 46 0;
#X connect 42 0 49 0;
#X connect 43 0 85 0;
#X connect 45 0 22 0;
#X connect 45 0 86 0;
#X connect 47 0 86 0;
#X connect 47 0 85 0;
#X connect 48 0 47 0;
#X connect 49 0 44 0;
#X connect 49 0 47 1;
#X connect 50 0 9 0;
#X connect 51 0 52 0;
#X connect 52 0 11 0;
#X connect 52 1 12 0;
#X connect 52 2 50 0;
#X connect 52 3 21 0;
#X connect 53 0 51 0;
#X connect 53 0 55 0;
#X connect 53 0 56 0;
#X connect 54 0 53 0;
#X connect 55 0 53 1;
#X connect 55 0 56 1;
#X connect 56 0 58 0;
#X connect 57 0 0 0;
#X connect 58 0 76 0;
#X connect 59 0 62 0;
#X connect 59 0 86 0;
#X connect 60 0 59 0;
#X connect 61 0 60 0;
#X connect 62 0 44 0;
#X connect 62 0 46 0;
#X connect 63 0 46 0;
#X connect 63 0 44 0;
#X connect 64 0 63 0;
#X connect 65 0 64 0;
#X connect 66 0 67 0;
#X connect 67 0 49 0;
#X connect 68 0 69 0;
#X connect 69 0 62 0;
#X connect 70 0 88 0;
#X connect 71 0 73 1;
#X connect 72 0 71 0;
#X connect 73 0 86 0;
#X connect 73 0 85 0;
#X connect 74 0 72 0;
#X connect 75 0 73 0;
#X connect 76 0 2 0;
#X connect 76 1 40 0;
#X connect 76 2 3 0;
#X connect 76 3 57 0;
#X connect 77 0 87 0;
#X connect 78 0 77 0;
#X connect 79 0 86 0;
#X connect 79 0 85 0;
#X connect 80 0 54 0;
#X connect 80 0 31 0;
#X connect 80 0 28 0;
#X connect 80 0 37 0;
#X connect 80 0 82 0;
#X connect 81 0 80 0;
#X connect 82 0 84 0;
#X connect 83 0 85 1;
#X connect 83 0 86 1;
#X connect 84 0 83 0;
#X connect 85 0 89 0;
#X connect 86 0 90 0;
#X connect 89 0 18 0;
#X connect 90 0 17 0;
