#N canvas 99 34 1096 640 10;
#X obj 273 100 tgl 15 0 empty empty empty 17 7 0 10 -262144 -1 -1 0
1;
#X obj 302 223 tgl 15 0 empty empty empty 17 7 0 10 -4032 -1 -1 0 1
;
#X obj 302 264 line~;
#X obj 199 256 osc~ 34;
#X obj 241 314 *~;
#X msg 302 246 \$1 10;
#X obj 373 485 outlet~;
#X obj 401 260 noise~;
#X obj 273 117 metro 1100;
#X obj 384 289 *~ 0.1;
#X obj 346 76 inlet;
#X obj 135 267 osc~ 400;
#X obj 141 299 *~ 0.5;
#X obj 494 219 inlet;
#X connect 0 0 8 0;
#X connect 1 0 5 0;
#X connect 2 0 4 1;
#X connect 3 0 4 0;
#X connect 4 0 6 0;
#X connect 5 0 2 0;
#X connect 7 0 9 0;
#X connect 8 0 1 0;
#X connect 9 0 4 0;
#X connect 10 0 8 1;
#X connect 10 0 11 0;
#X connect 11 0 12 0;
#X connect 12 0 4 0;
#X connect 13 0 0 0;
#X connect 13 0 1 0;
