#N canvas 4 23 1166 559 10;
#X obj 295 206 osc~ 1000;
#X obj 295 241 *~ 0.5;
#X obj 295 268 +~ 0.5;
#X obj 256 86 inlet freq;
#X obj 449 104 inlet min;
#X obj 623 100 inlet max;
#X floatatom 474 176 5 0 0 0 - - -, f 5;
#X floatatom 577 187 5 0 0 0 - - -, f 5;
#X obj 475 208 t b f;
#X obj 524 258 -;
#X floatatom 524 279 5 0 0 0 - - -, f 5;
#X obj 295 289 *~ 3;
#X obj 295 310 +~ 2;
#X obj 296 355 outlet~;
#X text 184 70 LFO;
#X obj 449 328 loadbang;
#X obj 370 72 f \$1;
#X obj 390 38 loadbang;
#X floatatom 314 107 5 0 0 0 - - -, f 5;
#X floatatom 424 129 5 0 0 0 - - -, f 5;
#X floatatom 613 118 5 0 0 0 - - -, f 5;
#X obj 403 71 f \$2;
#X obj 437 70 f \$3;
#X obj 453 394 send \$0-wave;
#X msg 448 359 sinesum 1024 1;
#X msg 570 325 sinesum 1024 1 0.5 0.33 0.25 0.2 0.167 0.143 0.125;
#X msg 595 361 sinesum 1024 1 0 0.33 0 0.2;
#X connect 0 0 1 0;
#X connect 1 0 2 0;
#X connect 2 0 11 0;
#X connect 3 0 0 0;
#X connect 4 0 6 0;
#X connect 5 0 7 0;
#X connect 6 0 8 0;
#X connect 6 0 12 1;
#X connect 7 0 9 0;
#X connect 8 0 9 0;
#X connect 8 1 9 1;
#X connect 9 0 10 0;
#X connect 10 0 11 1;
#X connect 11 0 12 0;
#X connect 12 0 13 0;
#X connect 15 0 24 0;
#X connect 15 0 25 0;
#X connect 16 0 18 0;
#X connect 17 0 16 0;
#X connect 18 0 0 0;
#X connect 19 0 6 0;
#X connect 20 0 7 0;
#X connect 21 0 19 0;
#X connect 22 0 20 0;
#X connect 24 0 23 0;
#X connect 25 0 23 0;
#X coords 0 0 1 1 85 60 0;
