#N canvas 0 23 1280 755 10;
#X obj 196 28 digitalsensor;
#X floatatom 167 56 5 0 0 0 - - -, f 5;
#X obj 564 692 dac~;
#X obj 612 656 line~;
#X msg 612 636 \$1 25;
#X obj 889 588 hsl 128 15 0 127 0 0 empty empty empty -2 -8 0 10 -258113
-1 -1 12700 1;
#X obj 889 381 notesmidi;
#N canvas 382 289 725 489 sounds 0;
#X obj 38 85 soundfiler;
#X text 43 22 Lecture d'un fichier son stereo;
#N canvas 0 0 450 300 (subpatch) 0;
#X array snd1 30372 float 2;
#X coords 0 1 30372 -1 100 80 1 0 0;
#X restore 111 84 graph;
#N canvas 0 0 450 300 (subpatch) 0;
#X array snd2 130897 float 2;
#X coords 0 1 130897 -1 100 80 1 0 0;
#X restore 360 84 graph;
#X floatatom 38 116 9 0 0 0 - - -, f 9;
#X obj 38 146 send size;
#X obj 38 23 loadbang;
#X obj 285 82 soundfiler;
#N canvas 0 0 450 300 (subpatch) 0;
#X array sn 2960 float 2;
#X coords 0 1 2960 -1 100 80 1 0 0;
#X restore 130 305 graph;
#X floatatom 285 113 5 0 0 0 - - -, f 5;
#X obj 285 143 send size;
#X obj 285 23 loadbang;
#X obj 493 65 soundfiler;
#N canvas 0 0 450 300 (subpatch) 0;
#X array snd3 8182 float 2;
#X coords 0 1 8182 -1 100 80 1 0 0;
#X restore 582 104 graph;
#X floatatom 506 118 5 0 0 0 - - -, f 5;
#X obj 509 143 send size;
#X obj 504 32 loadbang;
#X obj 537 316 soundfiler;
#N canvas 0 0 450 300 (subpatch) 0;
#X array snd4 8182 float 2;
#X coords 0 1 8182 -1 100 80 1 0 0;
#X restore 615 305 graph;
#X floatatom 537 347 5 0 0 0 - - -, f 5;
#X obj 537 377 send size;
#X obj 537 254 loadbang;
#X text 509 4 Lecture d'un fichier son mono;
#X text 285 53 Lecture d'un fichier son mono;
#X msg 38 54 read -resize perc1.aif snd1;
#X msg 283 54 read -resize perc2.aif snd2;
#X obj 191 14 bng 15 250 50 0 empty empty empty 17 7 0 10 -262144 -1
-1;
#X msg 537 269 read -resize perc3.aif snd4;
#X msg 505 49 read -resize perc4.aif snd3;
#X connect 0 0 4 0;
#X connect 4 0 5 0;
#X connect 6 0 24 0;
#X connect 7 0 9 0;
#X connect 9 0 10 0;
#X connect 11 0 25 0;
#X connect 12 0 14 0;
#X connect 14 0 15 0;
#X connect 16 0 28 0;
#X connect 17 0 19 0;
#X connect 19 0 20 0;
#X connect 21 0 27 0;
#X connect 24 0 0 0;
#X connect 25 0 7 0;
#X connect 26 0 24 0;
#X connect 26 0 25 0;
#X connect 26 0 12 0;
#X connect 26 0 27 0;
#X connect 27 0 17 0;
#X connect 28 0 12 0;
#X restore 15 63 pd sounds;
#N canvas 715 70 558 437 boiterythme 0;
#X obj 60 169 bng 15 250 50 0 empty empty empty 17 7 0 10 -262144 -1
-1;
#X obj 142 169 bng 15 250 50 0 empty empty empty 17 7 0 10 -262144
-1 -1;
#X obj 222 170 bng 15 250 50 0 empty empty empty 17 7 0 10 -262144
-1 -1;
#X obj 59 294 vcf~ 6;
#X obj 74 219 osc~ 0.1;
#X obj 74 245 *~ 200;
#X obj 74 268 +~ 400;
#X obj 141 294 vcf~ 6;
#X obj 156 219 osc~ 0.1;
#X obj 221 293 vcf~ 6;
#X obj 237 218 osc~ 0.1;
#X obj 237 244 *~ 500;
#X obj 237 267 +~ 2000;
#X obj 130 22 inlet go;
#X obj 131 371 outlet~;
#X obj 221 142 sel 1 4 11 13;
#X obj 318 175 bng 15 250 50 0 empty empty empty 17 7 0 10 -262144
-1 -1;
#X obj 317 298 vcf~ 6;
#X obj 333 223 osc~ 0.1;
#X obj 317 147 sel 3 5 9 15;
#X obj 332 272 +~ 3000;
#X obj 161 88 counter 0 15;
#X obj 160 63 metro 250;
#X obj 154 268 +~ 2000;
#X obj 156 245 *~ 400;
#X obj 211 24 inlet tim;
#X obj 52 133 sel 0 8 10;
#X obj 59 194 tabplay~ snd1;
#X obj 142 194 tabplay~ snd2;
#X obj 237 193 tabplay~ snd3;
#X obj 319 198 tabplay~ snd4;
#X obj 141 143 sel 5 9 7;
#X obj 251 51 random 500;
#X obj 136 347 *~ 0.2;
#X obj 333 249 *~ 1000;
#X connect 0 0 27 0;
#X connect 1 0 28 0;
#X connect 2 0 29 0;
#X connect 3 0 33 0;
#X connect 4 0 5 0;
#X connect 5 0 6 0;
#X connect 6 0 3 1;
#X connect 7 0 33 0;
#X connect 8 0 24 0;
#X connect 9 0 33 0;
#X connect 10 0 11 0;
#X connect 11 0 12 0;
#X connect 12 0 9 1;
#X connect 13 0 22 0;
#X connect 15 0 2 0;
#X connect 15 1 2 0;
#X connect 15 2 2 0;
#X connect 15 3 2 0;
#X connect 16 0 30 0;
#X connect 17 0 33 0;
#X connect 18 0 34 0;
#X connect 19 0 16 0;
#X connect 19 1 16 0;
#X connect 19 2 16 0;
#X connect 19 3 16 0;
#X connect 20 0 17 1;
#X connect 21 0 15 0;
#X connect 21 0 19 0;
#X connect 21 0 31 0;
#X connect 21 0 26 0;
#X connect 22 0 21 0;
#X connect 22 0 32 0;
#X connect 23 0 7 1;
#X connect 24 0 23 0;
#X connect 25 0 22 1;
#X connect 26 0 0 0;
#X connect 26 1 0 0;
#X connect 26 2 0 0;
#X connect 26 3 0 0;
#X connect 27 0 3 0;
#X connect 28 0 7 0;
#X connect 29 0 9 0;
#X connect 30 0 17 0;
#X connect 31 0 1 0;
#X connect 31 1 1 0;
#X connect 32 0 22 1;
#X connect 33 0 14 0;
#X connect 34 0 20 0;
#X restore 705 393 pd boiterythme;
#X floatatom 447 60 5 0 0 0 - - -, f 5;
#X obj 447 18 loadbang;
#X msg 447 40 1;
#X obj 422 98 /;
#X floatatom 422 118 10 0 0 0 - - -, f 10;
#X obj 410 78 f;
#X obj 410 46 t b f;
#X obj 890 355 tgl 15 0 empty empty empty 17 7 0 10 -4032 -1 -1 0 1
;
#X obj 559 673 *~;
#X obj 584 673 *~;
#X obj 422 138 * 5000;
#X obj 105 237 drone1;
#X obj 940 362 * 2;
#X obj 351 296 tgl 15 0 empty empty empty 17 7 0 10 -4032 -1 -1 0 1
;
#N canvas 293 23 987 591 boiterythme2 0;
#X obj 60 169 bng 15 250 50 0 empty empty empty 17 7 0 10 -262144 -1
-1;
#X obj 273 169 bng 15 250 50 0 empty empty empty 17 7 0 10 -262144
-1 -1;
#X obj 353 170 bng 15 250 50 0 empty empty empty 17 7 0 10 -262144
-1 -1;
#X obj 55 412 vcf~ 6;
#X obj 82 330 osc~ 0.1;
#X obj 70 363 *~ 200;
#X obj 70 386 +~ 400;
#X obj 268 412 vcf~ 6;
#X obj 279 330 osc~ 0.1;
#X obj 348 411 vcf~ 6;
#X obj 364 336 osc~ 0.1;
#X obj 364 362 *~ 500;
#X obj 364 385 +~ 2000;
#X obj 261 22 inlet go;
#X obj 127 556 outlet~;
#X obj 352 142 sel 1 4 11 13;
#X obj 449 175 bng 15 250 50 0 empty empty empty 17 7 0 10 -262144
-1 -1;
#X obj 444 416 vcf~ 6;
#X obj 460 341 osc~ 0.1;
#X obj 448 147 sel 3 5 9 15;
#X obj 460 390 +~ 3000;
#X obj 460 367 *~ 600;
#X obj 292 88 counter 0 15;
#X obj 291 62 metro 250;
#X obj 281 386 +~ 2000;
#X obj 283 363 *~ 400;
#X obj 347 39 inlet tim;
#X obj 60 145 sel 0 8 10;
#X msg 344 224 400;
#X obj 560 205 tgl 15 0 empty empty empty 17 7 0 10 -4032 -1 -1 1 1
;
#X obj 536 269 line~;
#X text 544 184 On/Off;
#X msg 48 216 300;
#X obj 466 276 *~;
#X obj 420 216 tgl 15 0 empty empty empty 17 7 0 10 -4032 -1 -1 0 1
;
#X obj 396 280 line~;
#X text 404 195 On/Off;
#X msg 405 259 \$1 100;
#X obj 349 287 *~;
#X obj 311 208 tgl 15 0 empty empty empty 17 7 0 10 -4032 -1 -1 0 1
;
#X obj 287 272 line~;
#X msg 296 251 \$1 100;
#X obj 254 288 *~;
#X obj 272 143 sel 2 6 11;
#X obj 228 245 osc~ 340;
#X obj 143 223 tgl 15 0 empty empty empty 17 7 0 10 -4032 -1 -1 1 1
;
#X obj 119 287 line~;
#X obj 48 313 *~ 0.1;
#X obj 736 123 lfo 1 0 10;
#X floatatom 736 173 5 0 0 0 - - -, f 5;
#X obj 666 296 tgl 15 0 empty empty empty 17 7 0 10 -262144 -1 -1 0
1;
#X obj 665 314 metro;
#X floatatom 700 293 5 0 0 0 - - -, f 5;
#X obj 665 335 f;
#X obj 665 383 hradio 16 1 0 4 empty empty empty 0 -8 0 10 -262144
-1 -1 2;
#X obj 714 337 + 1;
#X obj 670 446 tgl 15 0 empty empty empty 17 7 0 10 -262144 -1 -1 0
1;
#X obj 648 446 tgl 15 0 empty empty empty 17 7 0 10 -262144 -1 -1 0
1;
#X obj 713 446 tgl 15 0 empty empty empty 17 7 0 10 -262144 -1 -1 0
1;
#X obj 691 446 tgl 15 0 empty empty empty 17 7 0 10 -262144 -1 -1 0
1;
#X obj 664 410 sel 0 1 2 3;
#X obj 665 357 mod 4;
#X msg 692 271 200;
#X text 758 404 random sur metro;
#X floatatom 753 284 5 0 0 0 - - -, f 5;
#X obj 771 367 tgl 15 0 empty empty empty 17 7 0 10 -262144 -1 -1 0
1;
#X obj 770 332 metro 100;
#X obj 798 312 random 1000;
#X msg 545 248 \$1 100;
#X obj 467 248 osc~ 442;
#X obj 564 387 tgl 15 0 empty empty empty 17 7 0 10 -4032 -1 -1 0 1
;
#X obj 555 430 line~;
#X msg 564 409 \$1 1000;
#X obj 190 522 *~;
#X obj 233 529 *~;
#X obj 343 249 osc~ 140;
#X obj 54 268 phasor~ 816;
#X msg 128 266 \$1 10;
#X obj 132 464 *~ 0.9;
#X connect 0 0 45 0;
#X connect 1 0 39 0;
#X connect 2 0 34 0;
#X connect 3 0 78 0;
#X connect 4 0 5 0;
#X connect 5 0 6 0;
#X connect 6 0 3 1;
#X connect 7 0 78 0;
#X connect 8 0 25 0;
#X connect 9 0 78 0;
#X connect 10 0 11 0;
#X connect 11 0 12 0;
#X connect 12 0 9 1;
#X connect 13 0 23 0;
#X connect 13 0 70 0;
#X connect 15 0 2 0;
#X connect 15 1 2 0;
#X connect 15 2 2 0;
#X connect 15 3 2 0;
#X connect 16 0 29 0;
#X connect 17 0 78 0;
#X connect 18 0 21 0;
#X connect 19 0 16 0;
#X connect 19 1 16 0;
#X connect 19 2 16 0;
#X connect 19 3 16 0;
#X connect 20 0 17 1;
#X connect 21 0 20 0;
#X connect 22 0 15 0;
#X connect 22 0 19 0;
#X connect 22 0 27 0;
#X connect 22 0 43 0;
#X connect 23 0 22 0;
#X connect 24 0 7 1;
#X connect 25 0 24 0;
#X connect 26 0 23 1;
#X connect 26 0 44 1;
#X connect 26 0 76 1;
#X connect 27 0 0 0;
#X connect 27 1 0 0;
#X connect 27 2 0 0;
#X connect 28 0 75 0;
#X connect 29 0 68 0;
#X connect 30 0 33 1;
#X connect 32 0 76 0;
#X connect 33 0 17 0;
#X connect 34 0 37 0;
#X connect 35 0 38 1;
#X connect 37 0 35 0;
#X connect 38 0 9 0;
#X connect 39 0 41 0;
#X connect 40 0 42 1;
#X connect 41 0 40 0;
#X connect 42 0 7 0;
#X connect 43 0 1 0;
#X connect 43 1 1 0;
#X connect 43 2 1 0;
#X connect 44 0 42 0;
#X connect 45 0 77 0;
#X connect 46 0 47 1;
#X connect 47 0 3 0;
#X connect 50 0 51 0;
#X connect 51 0 53 0;
#X connect 52 0 51 1;
#X connect 53 0 55 0;
#X connect 53 0 61 0;
#X connect 54 0 60 0;
#X connect 55 0 53 1;
#X connect 60 0 57 0;
#X connect 60 0 58 0;
#X connect 60 1 56 0;
#X connect 60 1 57 0;
#X connect 60 2 56 0;
#X connect 60 2 59 0;
#X connect 60 3 59 0;
#X connect 60 3 58 0;
#X connect 61 0 54 0;
#X connect 62 0 52 0;
#X connect 64 0 52 0;
#X connect 65 0 66 0;
#X connect 66 0 67 0;
#X connect 67 0 66 1;
#X connect 67 0 64 0;
#X connect 68 0 30 0;
#X connect 69 0 33 0;
#X connect 70 0 72 0;
#X connect 71 0 73 1;
#X connect 71 0 74 1;
#X connect 72 0 71 0;
#X connect 73 0 14 0;
#X connect 74 0 14 0;
#X connect 75 0 38 0;
#X connect 76 0 47 0;
#X connect 77 0 46 0;
#X connect 78 0 73 0;
#X connect 78 0 74 0;
#X restore 351 314 pd boiterythme2;
#X obj 932 47 tgl 15 0 empty empty empty 17 7 0 10 -262144 -1 -1 0
1;
#X obj 932 67 metro;
#X floatatom 963 43 7 0 0 0 - - -, f 7;
#X obj 932 88 f;
#X obj 932 136 hradio 16 1 0 4 empty empty empty 0 -8 0 10 -262144
-1 -1 2;
#X obj 981 90 + 1;
#X obj 938 197 tgl 15 0 empty empty empty 17 7 0 10 -262144 -1 -1 0
1;
#X obj 915 199 tgl 15 0 empty empty empty 17 7 0 10 -262144 -1 -1 0
1;
#X obj 980 198 tgl 15 0 empty empty empty 17 7 0 10 -262144 -1 -1 0
1;
#X obj 957 198 tgl 15 0 empty empty empty 17 7 0 10 -262144 -1 -1 0
1;
#X obj 931 163 sel 0 1 2 3;
#X obj 932 110 mod 4;
#X obj 1042 47 tgl 15 0 empty empty empty 17 7 0 10 -262144 -1 -1 0
1;
#X obj 1041 64 metro;
#X floatatom 1076 43 5 0 0 0 - - -, f 5;
#X obj 1041 85 f;
#X obj 1041 133 hradio 16 1 0 4 empty empty empty 0 -8 0 10 -262144
-1 -1 2;
#X obj 1090 87 + 1;
#X obj 1040 160 sel 0 1 2 3;
#X obj 1041 107 mod 4;
#X text 982 8 séquence 4 pas;
#X text 841 176 Simple Oscillateur;
#X floatatom 243 79 5 0 0 0 - - -, f 5;
#X text 9 6 Prototype pour instalation avec 4 sensors ultrasons;
#X text 328 130 Échantilloneur;
#X text 907 260 On/Off;
#X obj 712 369 tgl 15 0 empty empty empty 17 7 0 10 -4032 -1 -1 0 1
;
#X text 135 29 0 à 500;
#X floatatom 248 129 5 0 0 0 - - -, f 5;
#X obj 1082 388 drone2;
#X obj 33 501 drone3;
#X obj 933 541 tgl 15 0 empty empty empty 17 7 0 10 -262144 -1 -1 0
1;
#X obj 955 542 tgl 15 0 empty empty empty 17 7 0 10 -262144 -1 -1 0
1;
#X obj 980 543 tgl 15 0 empty empty empty 17 7 0 10 -262144 -1 -1 0
1;
#X obj 1006 542 tgl 15 0 empty empty empty 17 7 0 10 -262144 -1 -1
0 1;
#X obj 1030 542 tgl 15 0 empty empty empty 17 7 0 10 -262144 -1 -1
0 1;
#X obj 895 540 bng 15 250 50 0 empty empty empty 17 7 0 10 -262144
-1 -1;
#X obj 133 528 pd_perc;
#X obj 949 513 sel 0 1 2 3 4 5 6 7 8;
#X obj 1067 545 tgl 15 0 empty empty empty 17 7 0 10 -262144 -1 -1
0 1;
#X obj 162 494 tgl 15 0 empty empty empty 17 7 0 10 -4032 -1 -1 0 1
;
#X obj 186 532 line~;
#X msg 186 515 \$1 1000;
#X obj 172 550 *~;
#X obj 133 549 *~;
#X obj 1048 543 tgl 15 0 empty empty empty 17 7 0 10 -262144 -1 -1
0 1;
#X msg 1068 21 200;
#X text 1134 154 random sur metro;
#X floatatom 1129 34 5 0 0 0 - - -, f 5;
#X obj 1151 78 tgl 15 0 empty empty empty 17 7 0 10 -262144 -1 -1 0
1;
#X obj 1168 109 metro 100;
#X floatatom 1138 511 0 0 0 0 - - -;
#X floatatom 1108 511 0 0 0 0 - - -;
#X text 494 102 value;
#X obj 1108 481 ctlin 48;
#X floatatom 1200 513 0 0 0 0 - - -;
#X floatatom 1170 510 0 0 0 0 - - -;
#X obj 1171 479 ctlin 49;
#X obj 591 187 freeverb~;
#X text 900 166 dry;
#X obj 1104 535 / 127;
#X obj 815 344 drums;
#X obj 15 101 pd_perc2;
#X floatatom 64 80 5 0 0 0 - - -, f 5;
#X msg 656 172 wet \$1;
#X msg 704 172 dry \$1;
#X obj 659 117 hsl 128 15 0 1 0 0 empty empty empty -2 -8 0 10 -262144
-1 -1 0 1;
#N canvas 1 80 450 300 inv 0;
#X obj 154 69 inlet;
#X obj 154 179 outlet;
#X msg 154 124 1;
#X obj 154 97 t b f;
#X obj 154 151 -;
#X connect 0 0 3 0;
#X connect 2 0 4 0;
#X connect 3 0 2 0;
#X connect 3 1 4 1;
#X connect 4 0 1 0;
#X restore 704 145 pd inv;
#X floatatom 762 170 5 0 0 0 - - -, f 5;
#X floatatom 663 146 5 0 0 0 - - -, f 5;
#X obj 13 238 drone_random;
#X obj 15 208 tgl 15 0 empty empty empty 17 7 0 10 -262144 -1 -1 0
1;
#X obj 94 491 osc_pd;
#X obj 651 208 hsl 128 15 0 1 0 1 empty empty empty -2 -8 0 10 -262144
-1 -1 0 1;
#X obj 643 230 freezeverb 299;
#X obj 114 465 tgl 15 0 empty empty empty 17 7 0 10 -262144 -1 -1 0
1;
#X obj 1114 363 tgl 15 0 empty empty empty 17 7 0 10 -262144 -1 -1
0 1;
#X obj 133 215 tgl 15 0 empty empty empty 17 7 0 10 -262144 -1 -1 0
1;
#X obj 55 473 tgl 15 0 empty empty empty 17 7 0 10 -262144 -1 -1 0
1;
#X obj 473 563 *~ 0.001;
#X obj 584 551 *~ 0.001;
#X obj 1174 62 random 30000;
#X obj 1054 198 tgl 15 0 empty empty empty 17 7 0 10 -262144 -1 -1
0 1;
#X obj 1032 198 tgl 15 0 empty empty empty 17 7 0 10 -262144 -1 -1
0 1;
#X obj 1097 198 tgl 15 0 empty empty empty 17 7 0 10 -262144 -1 -1
0 1;
#X obj 1075 198 tgl 15 0 empty empty empty 17 7 0 10 -262144 -1 -1
0 1;
#X text 61 179 THEME 1;
#X text 51 549 theme 2;
#X obj 302 315 noise1;
#X obj 522 606 clip~ -1 1;
#X obj 609 592 clip~ -1 1;
#X obj 276 282 tgl 15 0 empty empty empty 17 7 0 10 -262144 -1 -1 0
1;
#X obj 434 344 pd_perc;
#X obj 463 310 tgl 15 0 empty empty empty 17 7 0 10 -4032 -1 -1 0 1
;
#X obj 490 358 line~;
#X obj 468 365 *~;
#X obj 435 382 *~;
#X msg 962 27 30000;
#X floatatom 277 54 5 0 0 0 - - -, f 5;
#X obj 318 183 < 30;
#X floatatom 344 203 5 0 0 0 - - -, f 5;
#X msg 487 331 \$1 1000;
#X obj 992 334 tgl 15 0 empty empty empty 17 7 0 10 -4032 -1 -1 0 1
;
#X obj 1045 360 * 2;
#X obj 978 284 tgl 15 0 empty empty empty 17 7 0 10 -4032 -1 -1 0 1
;
#X msg 1002 305 \$1 1000;
#X obj 1030 328 line~;
#X obj 721 479 *~;
#X obj 779 500 *~;
#X obj 994 403 synth1;
#X obj 465 425 *~ 2;
#X obj 841 312 tgl 15 0 empty empty empty 17 7 0 10 -262144 -1 -1 0
1;
#X obj 889 405 synth1;
#X obj 994 379 notesmidi;
#X obj 1036 468 notein 1;
#X obj 891 634 notein;
#X floatatom 885 666 5 0 0 0 - - -, f 5;
#X obj 193 623 recorder;
#X obj 193 743;
#X obj 193 743;
#X obj 538 58 random 2000;
#X obj 650 61 metro 10;
#X obj 648 35 tgl 15 0 empty empty empty 17 7 0 10 -262144 -1 -1 1
1;
#X connect 0 0 1 0;
#X connect 0 1 46 0;
#X connect 0 3 122 0;
#X connect 1 0 21 0;
#X connect 1 0 15 0;
#X connect 1 0 86 1;
#X connect 1 0 96 0;
#X connect 1 0 112 1;
#X connect 1 0 6 2;
#X connect 3 0 18 1;
#X connect 3 0 17 1;
#X connect 4 0 3 0;
#X connect 5 0 4 0;
#X connect 6 0 136 0;
#X connect 6 1 136 1;
#X connect 8 0 103 0;
#X connect 8 0 104 0;
#X connect 9 0 14 0;
#X connect 10 0 11 0;
#X connect 11 0 9 0;
#X connect 12 0 13 0;
#X connect 13 0 19 0;
#X connect 14 0 12 0;
#X connect 15 0 14 0;
#X connect 15 1 12 1;
#X connect 16 0 6 0;
#X connect 17 0 2 0;
#X connect 17 0 141 0;
#X connect 18 0 2 1;
#X connect 18 0 141 1;
#X connect 19 0 8 1;
#X connect 20 0 103 0;
#X connect 20 1 104 0;
#X connect 21 0 6 1;
#X connect 22 0 23 0;
#X connect 23 0 103 0;
#X connect 23 0 104 0;
#X connect 24 0 25 0;
#X connect 25 0 27 0;
#X connect 26 0 25 1;
#X connect 27 0 29 0;
#X connect 27 0 35 0;
#X connect 28 0 34 0;
#X connect 29 0 27 1;
#X connect 30 0 99 0;
#X connect 30 0 102 0;
#X connect 30 0 64 0;
#X connect 31 0 95 0;
#X connect 31 0 101 0;
#X connect 32 0 100 0;
#X connect 32 0 128 0;
#X connect 33 0 115 0;
#X connect 33 0 22 0;
#X connect 33 0 117 0;
#X connect 34 0 31 0;
#X connect 34 0 32 0;
#X connect 34 1 30 0;
#X connect 34 1 31 0;
#X connect 34 2 30 0;
#X connect 34 2 33 0;
#X connect 34 3 33 0;
#X connect 34 3 32 0;
#X connect 35 0 28 0;
#X connect 36 0 37 0;
#X connect 37 0 39 0;
#X connect 38 0 37 1;
#X connect 39 0 41 0;
#X connect 39 0 43 0;
#X connect 40 0 42 0;
#X connect 41 0 39 1;
#X connect 42 0 107 0;
#X connect 42 0 108 0;
#X connect 42 1 107 0;
#X connect 42 1 106 0;
#X connect 42 2 106 0;
#X connect 42 2 109 0;
#X connect 42 3 109 0;
#X connect 42 4 108 0;
#X connect 42 4 109 0;
#X connect 43 0 40 0;
#X connect 46 0 52 0;
#X connect 46 0 20 0;
#X connect 46 0 61 2;
#X connect 46 0 85 0;
#X connect 46 0 137 2;
#X connect 50 0 8 0;
#X connect 52 0 23 1;
#X connect 52 0 53 0;
#X connect 52 0 54 0;
#X connect 52 0 112 2;
#X connect 52 0 123 0;
#X connect 53 0 103 0;
#X connect 53 1 104 0;
#X connect 54 0 103 0;
#X connect 54 1 104 0;
#X connect 55 0 31 0;
#X connect 56 0 30 0;
#X connect 57 0 33 0;
#X connect 58 0 32 0;
#X connect 61 0 68 0;
#X connect 61 1 67 0;
#X connect 62 0 60 0;
#X connect 62 1 55 0;
#X connect 62 2 56 0;
#X connect 62 3 57 0;
#X connect 62 4 58 0;
#X connect 62 5 59 0;
#X connect 62 6 69 0;
#X connect 62 7 63 0;
#X connect 62 8 63 0;
#X connect 64 0 66 0;
#X connect 64 0 61 1;
#X connect 65 0 67 1;
#X connect 65 0 68 1;
#X connect 66 0 65 0;
#X connect 67 0 104 0;
#X connect 68 0 103 0;
#X connect 70 0 38 0;
#X connect 72 0 38 0;
#X connect 73 0 74 0;
#X connect 74 0 105 0;
#X connect 76 0 84 0;
#X connect 78 0 76 0;
#X connect 78 1 75 0;
#X connect 81 0 80 0;
#X connect 81 1 79 0;
#X connect 85 0 103 0;
#X connect 85 0 104 0;
#X connect 87 0 86 2;
#X connect 88 0 82 0;
#X connect 89 0 82 0;
#X connect 90 0 88 0;
#X connect 90 0 91 0;
#X connect 90 0 93 0;
#X connect 91 0 89 0;
#X connect 91 0 92 0;
#X connect 94 0 103 0;
#X connect 94 1 104 0;
#X connect 95 0 94 0;
#X connect 96 0 103 0;
#X connect 96 1 104 0;
#X connect 97 0 98 1;
#X connect 99 0 96 1;
#X connect 100 0 53 1;
#X connect 101 0 20 1;
#X connect 102 0 54 1;
#X connect 103 0 113 0;
#X connect 104 0 114 0;
#X connect 105 0 74 1;
#X connect 105 0 72 0;
#X connect 106 0 50 0;
#X connect 107 0 64 0;
#X connect 109 0 22 0;
#X connect 112 0 103 0;
#X connect 112 1 104 0;
#X connect 113 0 17 0;
#X connect 114 0 18 0;
#X connect 115 0 112 0;
#X connect 116 0 120 0;
#X connect 116 1 119 0;
#X connect 117 0 125 0;
#X connect 117 0 116 1;
#X connect 118 0 119 1;
#X connect 118 0 120 1;
#X connect 119 0 134 0;
#X connect 120 0 134 0;
#X connect 121 0 26 0;
#X connect 123 0 124 0;
#X connect 125 0 118 0;
#X connect 126 0 137 0;
#X connect 127 0 137 1;
#X connect 128 0 129 0;
#X connect 128 0 16 0;
#X connect 128 0 126 0;
#X connect 129 0 130 0;
#X connect 130 0 132 1;
#X connect 130 0 131 1;
#X connect 131 0 103 0;
#X connect 132 0 104 0;
#X connect 133 0 132 0;
#X connect 134 0 103 0;
#X connect 134 0 104 0;
#X connect 135 0 85 1;
#X connect 136 0 131 0;
#X connect 137 0 133 0;
#X connect 137 1 133 1;
#X connect 138 0 62 0;
#X connect 139 0 140 0;
#X connect 144 0 46 0;
#X connect 144 0 1 0;
#X connect 145 0 144 0;
#X connect 146 0 145 0;
