#N canvas 0 23 912 509 10;
#X obj 209 122 loadbang;
#X obj 67 241 funbuff;
#C restore;
#X obj 67 63 counter 0 7;
#X floatatom 67 270 5 0 0 0 - - -, f 5;
#X obj 67 313 makenote 100 250;
#X obj 99 109 sel 0;
#X obj 67 85 t f f;
#X obj 99 131 counter 0 7;
#X obj 99 153 sel 0 2 4 6;
#X obj 67 175 t f f;
#X obj 131 245 sel 0 4;
#X msg 177 274 80;
#X msg 131 274 120;
#X obj 67 335 outlet note;
#X obj 160 336 outlet vel;
#X obj 65 18 inlet go;
#X obj 167 23 inlet time;
#X obj 67 41 metro 125;
#X msg 257 222 0 54 \, 1 54 \, 2 49 \, 3 51 \, 4 61 \, 5 49 \, 6 56
\, 7 51;
#X msg 211 201 0 54 \, 1 54 \, 2 49 \, 3 51 \, 4 61 \, 5 49 \, 6 56
\, 7 51;
#X msg 208 180 0 54 \, 1 54 \, 2 49 \, 3 51 \, 4 61 \, 5 49 \, 6 56
\, 7 51;
#X floatatom 666 149 5 0 0 0 - - -, f 5;
#X obj 666 107 loadbang;
#X msg 666 129 1;
#X obj 641 187 /;
#X floatatom 641 207 10 0 0 0 - - -, f 10;
#X obj 629 167 f;
#X obj 629 135 t b f;
#X text 547 219 Échantilloneur;
#X text 713 191 value;
#X obj 527 58 inlet sensor;
#X floatatom 529 90 5 0 0 0 - - -, f 5;
#X floatatom 529 110 5 0 0 0 - - -, f 5;
#X floatatom 654 271 5 0 0 0 - - -, f 5;
#X obj 649 232 * 10000;
#X connect 0 0 20 0;
#X connect 2 0 6 0;
#X connect 2 1 6 0;
#X connect 2 2 6 0;
#X connect 2 3 6 0;
#X connect 3 0 4 0;
#X connect 4 0 13 0;
#X connect 4 1 14 0;
#X connect 5 0 7 0;
#X connect 6 0 9 0;
#X connect 6 1 5 0;
#X connect 7 0 8 0;
#X connect 8 1 20 0;
#X connect 8 2 19 0;
#X connect 8 3 18 0;
#X connect 9 0 1 0;
#X connect 9 1 10 0;
#X connect 10 0 12 0;
#X connect 10 1 12 0;
#X connect 10 2 11 0;
#X connect 11 0 4 1;
#X connect 12 0 4 1;
#X connect 15 0 17 0;
#X connect 16 0 17 1;
#X connect 17 0 2 0;
#X connect 18 0 1 0;
#X connect 19 0 1 0;
#X connect 20 0 1 0;
#X connect 21 0 26 0;
#X connect 22 0 23 0;
#X connect 23 0 21 0;
#X connect 24 0 25 0;
#X connect 25 0 34 0;
#X connect 26 0 24 0;
#X connect 27 0 26 0;
#X connect 27 1 24 1;
#X connect 30 0 31 0;
#X connect 31 0 27 0;
#X connect 31 0 32 0;
#X connect 33 0 3 0;
#X connect 34 0 33 0;
