#N canvas 0 23 975 585 10;
#X obj 210 548 outlet~;
#X obj 292 550 outlet~;
#X obj 218 389 chorus;
#X obj 156 265 osc~;
#X floatatom 146 226 5 0 0 0 - - -, f 5;
#X floatatom 233 349 5 0 0 0 - - -, f 5;
#X obj 360 302 tgl 15 0 empty empty empty 17 7 0 10 -4032 -1 -1 0 1
;
#X obj 338 344 line~;
#X obj 254 438 *~;
#X msg 341 326 \$1 100;
#X obj 138 179 * 2;
#X obj 139 153 inlet;
#X obj 372 172 inlet;
#X obj 212 144 metro 125;
#X obj 212 101 tgl 15 0 empty empty empty 17 7 0 10 -262144 -1 -1 0
1;
#X obj 218 180 random 5;
#X obj 190 267 phasor~;
#X obj 245 294 bob~;
#X msg 287 270 1;
#X msg 257 271 4000;
#X obj 215 325 / 1500;
#X obj 317 454 freeverb~;
#X msg 382 439 wet \$1;
#X msg 430 439 dry \$1;
#X obj 394 384 hsl 128 15 0 1 0 0 empty empty empty -2 -8 0 10 -262144
-1 -1 1900 1;
#N canvas 1 80 450 300 inv 0;
#X obj 154 69 inlet;
#X obj 154 179 outlet;
#X msg 154 124 1;
#X obj 154 97 t b f;
#X obj 154 151 -;
#X connect 0 0 3 0;
#X connect 2 0 4 0;
#X connect 3 0 2 0;
#X connect 3 1 4 1;
#X connect 4 0 1 0;
#X restore 430 412 pd inv;
#X floatatom 488 437 5 0 0 0 - - -, f 5;
#X floatatom 389 413 5 0 0 0 - - -, f 5;
#X obj 96 411 chorus;
#X obj 34 287 osc~;
#X floatatom 24 248 5 0 0 0 - - -, f 5;
#X floatatom 111 371 5 0 0 0 - - -, f 5;
#X obj 68 289 phasor~;
#X obj 123 316 bob~;
#X msg 165 292 1;
#X msg 135 293 4000;
#X obj 93 347 / 1500;
#X obj 79 184 / 2.5;
#X obj 253 459 *~ 0.4;
#X connect 2 0 8 0;
#X connect 3 0 2 0;
#X connect 4 0 3 0;
#X connect 4 0 16 0;
#X connect 4 0 20 0;
#X connect 5 0 2 1;
#X connect 6 0 9 0;
#X connect 7 0 8 1;
#X connect 8 0 38 0;
#X connect 9 0 7 0;
#X connect 10 0 4 0;
#X connect 11 0 10 0;
#X connect 11 0 37 0;
#X connect 12 0 6 0;
#X connect 14 0 13 0;
#X connect 16 0 17 0;
#X connect 17 0 2 0;
#X connect 18 0 17 2;
#X connect 19 0 17 1;
#X connect 20 0 5 0;
#X connect 21 0 0 0;
#X connect 21 1 1 0;
#X connect 22 0 21 0;
#X connect 23 0 21 0;
#X connect 24 0 22 0;
#X connect 24 0 25 0;
#X connect 24 0 27 0;
#X connect 25 0 23 0;
#X connect 25 0 26 0;
#X connect 28 0 8 0;
#X connect 29 0 28 0;
#X connect 30 0 29 0;
#X connect 30 0 32 0;
#X connect 30 0 36 0;
#X connect 31 0 28 1;
#X connect 32 0 33 0;
#X connect 33 0 28 0;
#X connect 34 0 33 2;
#X connect 35 0 33 1;
#X connect 36 0 31 0;
#X connect 37 0 30 0;
#X connect 38 0 21 0;
#X connect 38 0 21 1;
