#N canvas 177 133 1024 589 10;
#X obj 263 228 osc~ 240;
#X obj 326 446 dac~;
#X obj 472 391 line~;
#X msg 472 371 \$1 25;
#X obj 580 351 hsl 128 15 0 1 0 0 empty empty empty -2 -8 0 10 -258113
-1 -1 0 1;
#X obj 391 346 *~;
#X obj 275 335 *~;
#X obj 300 418 *~;
#X obj 363 420 *~;
#X obj 387 291 *~;
#X obj 396 225 osc~ 2;
#X obj 460 288 *~;
#X obj 469 222 osc~ 2;
#X obj 727 235 lfo;
#X connect 0 0 6 0;
#X connect 0 0 5 0;
#X connect 2 0 7 1;
#X connect 2 0 8 1;
#X connect 3 0 2 0;
#X connect 4 0 3 0;
#X connect 5 0 8 0;
#X connect 6 0 7 0;
#X connect 7 0 1 0;
#X connect 8 0 1 1;
#X connect 9 0 6 1;
#X connect 10 0 9 0;
#X connect 11 0 5 1;
#X connect 12 0 11 0;
