#N canvas 71 61 1183 708 10;
#X obj 149 72 bng 15 250 50 0 empty empty empty 17 7 0 10 -262144 -1
-1;
#X obj 146 125 random 2;
#X obj 146 146 thresh;
#X obj 146 167 iter;
#X obj 146 188 t b f;
#X obj 146 209 counter 0 0 15;
#X obj 146 230 pack f f;
#X obj 146 251 coll;
#C restore;
#X obj 146 272 sel 1;
#X obj 146 293 bng 15 250 50 0 empty empty empty 17 7 0 10 -262144
-1 -1;
#X msg 146 313 1 \, 0 5;
#X obj 146 334 line~;
#X obj 38 198 random 3;
#X obj 38 219 sel 0;
#X obj 38 240 del 100;
#X obj 41 271 bng 15 250 50 0 empty empty empty 17 7 0 10 -262144 -1
-1;
#X obj 71 365 noise~;
#X obj 110 393 *~;
#X obj 110 414 *~ 0.4;
#X obj 54 593 *~;
#X obj 297 117 uzi 16;
#X obj 300 85 bng 15 250 50 0 empty empty empty 17 7 0 10 -262144 -1
-1;
#X obj 297 138 random 2;
#X obj 297 159 thresh;
#X obj 297 180 iter;
#X obj 297 201 t b f;
#X obj 297 222 counter 0 0 15;
#X obj 297 243 pack f f;
#X obj 297 264 coll;
#C restore;
#X obj 258 274 tgl 15 0 empty empty empty 17 7 0 10 -262144 -1 -1 0
1;
#X obj 258 294 + 1;
#X obj 291 315 switch 2;
#X obj 291 336 print;
#X obj 505 86 counter 0 0 15;
#X obj 660 57 sel 1;
#X obj 660 80 bng 15 250 50 0 empty empty empty 17 7 0 10 -262144 -1
-1;
#X obj 465 186 sel 0;
#X obj 490 218 bng 15 250 50 0 empty empty empty 17 7 0 10 -262144
-1 -1;
#X obj 512 243 counter 0 0 3;
#X obj 512 264 sel 0;
#X obj 512 287 bng 15 250 50 0 empty empty empty 17 7 0 10 -262144
-1 -1;
#X obj 385 285 + 30;
#X floatatom 386 304 5 0 0 0 - - -;
#X obj 385 326 mtof;
#X obj 385 347 osc~;
#X obj 419 420 *~;
#X obj 419 445 *~ 0.5;
#X obj 474 329 sel 1;
#X obj 473 352 bng 15 250 50 0 empty empty empty 17 7 0 10 -262144
-1 -1;
#X obj 473 393 line~;
#X obj 612 632 outlet~;
#X obj 700 631 outlet~;
#X obj 559 382 random 3;
#X obj 559 403 sel 0;
#X obj 559 424 del 100;
#X obj 521 440 bng 15 250 50 0 empty empty empty 17 7 0 10 -262144
-1 -1;
#X obj 202 461 uzi 16;
#X obj 202 438 bng 15 250 50 0 empty empty empty 17 7 0 10 -262144
-1 -1;
#X obj 202 524 thresh;
#X obj 202 545 iter;
#X obj 202 566 t b f;
#X obj 202 587 counter 0 0 15;
#X obj 202 608 pack f f;
#X obj 202 629 coll;
#C restore;
#X obj 202 482 random 100;
#X obj 202 503 / 100;
#X obj 319 464 uzi 16;
#X obj 319 441 bng 15 250 50 0 empty empty empty 17 7 0 10 -262144
-1 -1;
#X obj 319 527 thresh;
#X obj 319 548 iter;
#X obj 319 569 t b f;
#X obj 319 590 counter 0 0 15;
#X obj 319 611 pack f f;
#X obj 319 632 coll;
#C restore;
#X obj 319 485 random 100;
#X obj 319 506 / 100;
#X obj 724 64 uzi 16;
#X obj 727 32 bng 15 250 50 0 empty empty empty 17 7 0 10 -262144 -1
-1;
#X obj 724 85 random 2;
#X obj 724 106 thresh;
#X obj 724 127 iter;
#X obj 724 148 t b f;
#X obj 724 169 counter 0 0 15;
#X obj 724 190 pack f f;
#X obj 724 211 coll;
#C restore;
#X obj 724 232 sel 1;
#X obj 629 302 random 4000;
#X obj 692 327 + 1000;
#X obj 704 356 line~;
#X obj 657 374 noise~;
#X obj 732 421 *~;
#X floatatom 841 37 5 0 0 0 - - -;
#X obj 841 57 mtof;
#X obj 841 78 phasor~;
#X obj 936 129 svf~, f 9;
#X obj 949 31 bng 15 250 50 0 empty empty empty 17 7 0 10 -262144 -1
-1;
#X msg 949 51 50 \, 500 3200;
#X obj 949 72 line~;
#X obj 811 212 bng 15 250 50 0 empty empty empty 17 7 0 10 -262144
-1 -1;
#X obj 811 232 random 2;
#X obj 811 253 sel 0 1;
#X obj 790 279 bng 15 250 50 0 empty empty empty 17 7 0 10 -262144
-1 -1;
#X obj 818 279 bng 15 250 50 0 empty empty empty 17 7 0 10 -262144
-1 -1;
#X msg 818 299 1 \, 0 200;
#X msg 748 304 1 \, 0 100;
#X obj 749 325 line~;
#X obj 732 442 *~ 0.4;
#X obj 706 482 *~;
#X obj 761 480 *~;
#X obj 917 380 uzi 16;
#X obj 917 357 bng 15 250 50 0 empty empty empty 17 7 0 10 -262144
-1 -1;
#X obj 917 443 thresh;
#X obj 917 464 iter;
#X obj 917 485 t b f;
#X obj 917 506 counter 0 0 15;
#X obj 917 527 pack f f;
#X obj 917 548 coll;
#C restore;
#X obj 917 401 random 100;
#X obj 917 422 / 100;
#X obj 1036 387 uzi 16;
#X obj 1036 364 bng 15 250 50 0 empty empty empty 17 7 0 10 -262144
-1 -1;
#X obj 1036 450 thresh;
#X obj 1036 471 iter;
#X obj 1036 492 t b f;
#X obj 1036 513 counter 0 0 15;
#X obj 1036 534 pack f f;
#X obj 1036 408 random 100;
#X obj 1036 429 / 100;
#X obj 1036 555 coll;
#C restore;
#X obj 106 491 *~;
#X obj 680 394 svf~, f 9;
#X msg 473 372 1 \, 0 200;
#X obj 937 206 *~ 0.08;
#X floatatom 1026 121 5 0 0 0 - - -;
#X obj 1074 150 *~;
#X obj 1049 69 osc~ 300;
#X obj 1089 125 lfo 0.05 0 1;
#X obj 1075 91 osc~ 0.1;
#X obj 1048 173 *~;
#X obj 146 104 uzi 16;
#X obj 373 59 inlet;
#X obj 562 3 inlet;
#X obj 614 4 inlet;
#X obj 166 370 *~ 0.2;
#X obj 505 65 metro 125;
#X connect 0 0 139 0;
#X connect 1 0 2 0;
#X connect 2 0 3 0;
#X connect 3 0 4 0;
#X connect 4 0 5 0;
#X connect 4 1 6 1;
#X connect 5 0 6 0;
#X connect 6 0 7 0;
#X connect 7 0 8 0;
#X connect 8 0 9 0;
#X connect 9 0 10 0;
#X connect 9 0 12 0;
#X connect 10 0 11 0;
#X connect 11 0 143 0;
#X connect 12 0 13 0;
#X connect 13 0 14 0;
#X connect 14 0 15 0;
#X connect 15 0 10 0;
#X connect 16 0 17 0;
#X connect 17 0 18 0;
#X connect 18 0 19 0;
#X connect 18 0 129 0;
#X connect 19 0 50 0;
#X connect 19 0 51 0;
#X connect 20 0 22 0;
#X connect 21 0 20 0;
#X connect 22 0 23 0;
#X connect 23 0 24 0;
#X connect 24 0 25 0;
#X connect 25 0 26 0;
#X connect 25 1 27 1;
#X connect 26 0 27 0;
#X connect 27 0 28 0;
#X connect 28 0 31 2;
#X connect 28 0 47 0;
#X connect 29 0 30 0;
#X connect 30 0 31 0;
#X connect 31 0 32 0;
#X connect 33 0 7 0;
#X connect 33 0 28 0;
#X connect 33 0 36 0;
#X connect 33 0 63 0;
#X connect 33 0 84 0;
#X connect 33 0 116 0;
#X connect 33 0 128 0;
#X connect 33 0 73 0;
#X connect 34 0 35 0;
#X connect 35 0 5 2;
#X connect 35 0 26 2;
#X connect 35 0 61 2;
#X connect 35 0 71 2;
#X connect 35 0 38 2;
#X connect 35 0 82 2;
#X connect 35 0 114 2;
#X connect 35 0 124 2;
#X connect 35 0 33 2;
#X connect 36 0 37 0;
#X connect 37 0 38 0;
#X connect 37 0 95 0;
#X connect 37 0 41 0;
#X connect 38 0 39 0;
#X connect 39 0 40 0;
#X connect 40 0 21 0;
#X connect 40 0 0 0;
#X connect 40 0 57 0;
#X connect 40 0 67 0;
#X connect 40 0 77 0;
#X connect 40 0 86 0;
#X connect 40 0 110 0;
#X connect 40 0 120 0;
#X connect 41 0 42 0;
#X connect 42 0 43 0;
#X connect 42 0 91 0;
#X connect 43 0 44 0;
#X connect 44 0 45 0;
#X connect 45 0 46 0;
#X connect 46 0 50 0;
#X connect 46 0 51 0;
#X connect 47 0 48 0;
#X connect 48 0 131 0;
#X connect 48 0 52 0;
#X connect 49 0 45 1;
#X connect 52 0 53 0;
#X connect 53 0 54 0;
#X connect 54 0 55 0;
#X connect 55 0 131 0;
#X connect 56 0 64 0;
#X connect 57 0 56 0;
#X connect 58 0 59 0;
#X connect 59 0 60 0;
#X connect 60 0 61 0;
#X connect 60 1 62 1;
#X connect 61 0 62 0;
#X connect 62 0 63 0;
#X connect 63 0 19 1;
#X connect 64 0 65 0;
#X connect 65 0 58 0;
#X connect 66 0 74 0;
#X connect 67 0 66 0;
#X connect 68 0 69 0;
#X connect 69 0 70 0;
#X connect 70 0 71 0;
#X connect 70 1 72 1;
#X connect 71 0 72 0;
#X connect 72 0 73 0;
#X connect 73 0 129 1;
#X connect 74 0 75 0;
#X connect 75 0 68 0;
#X connect 76 0 78 0;
#X connect 77 0 76 0;
#X connect 78 0 79 0;
#X connect 79 0 80 0;
#X connect 80 0 81 0;
#X connect 81 0 82 0;
#X connect 81 1 83 1;
#X connect 82 0 83 0;
#X connect 83 0 84 0;
#X connect 84 0 85 0;
#X connect 85 0 98 0;
#X connect 86 0 87 0;
#X connect 87 0 88 0;
#X connect 88 0 130 1;
#X connect 89 0 130 0;
#X connect 90 0 106 0;
#X connect 91 0 92 0;
#X connect 92 0 93 0;
#X connect 92 0 135 0;
#X connect 94 0 132 0;
#X connect 95 0 96 0;
#X connect 96 0 97 0;
#X connect 97 0 94 1;
#X connect 98 0 99 0;
#X connect 99 0 100 0;
#X connect 100 0 101 0;
#X connect 100 1 102 0;
#X connect 101 0 104 0;
#X connect 102 0 103 0;
#X connect 104 0 105 0;
#X connect 105 0 90 1;
#X connect 106 0 107 0;
#X connect 106 0 108 0;
#X connect 107 0 50 0;
#X connect 108 0 51 0;
#X connect 109 0 117 0;
#X connect 110 0 109 0;
#X connect 111 0 112 0;
#X connect 112 0 113 0;
#X connect 113 0 114 0;
#X connect 113 1 115 1;
#X connect 114 0 115 0;
#X connect 115 0 116 0;
#X connect 116 0 107 1;
#X connect 117 0 118 0;
#X connect 118 0 111 0;
#X connect 119 0 126 0;
#X connect 120 0 119 0;
#X connect 121 0 122 0;
#X connect 122 0 123 0;
#X connect 123 0 124 0;
#X connect 123 1 125 1;
#X connect 124 0 125 0;
#X connect 125 0 128 0;
#X connect 126 0 127 0;
#X connect 127 0 121 0;
#X connect 128 0 108 1;
#X connect 129 0 50 0;
#X connect 129 0 51 0;
#X connect 130 0 90 0;
#X connect 131 0 49 0;
#X connect 132 0 51 0;
#X connect 132 0 50 0;
#X connect 133 0 94 2;
#X connect 134 0 138 1;
#X connect 135 0 138 0;
#X connect 136 0 134 1;
#X connect 137 0 134 0;
#X connect 138 0 94 0;
#X connect 139 0 1 0;
#X connect 140 0 41 0;
#X connect 141 0 144 0;
#X connect 142 0 144 1;
#X connect 143 0 17 1;
#X connect 144 0 33 0;
