#N canvas 172 64 1107 689 10;
#X obj 37 37 import mrpeach;
#X text 389 133 115200 est le baud rate. Vous pourriez avoir à le
changer également.;
#X text 356 282 Décode les paquets SLIP et forme des listes. (Merci
Monsieur Pêche!);
#X obj -8 270 mrpeach/slipdec;
#X msg -23 98 devices;
#X text 154 35 Importer les objets de Monsieur Pêche. (PD-extended
seulement).;
#X text -53 80 Obtenir la liste des ports usb.;
#X msg 172 178 close;
#X text 373 180 Fermer le port.;
#X text 391 91 Ouvrir une connexion série. Le numéro ou le nom du
port série utilisé sera sans doute différent pour vous. Remplacez
4 par le numéro du port série que vous utilisez.;
#X obj -10 359 << 8;
#X obj -11 398 |;
#X floatatom -11 422 5 0 0 0 - - -, f 5;
#X obj -8 237 comport/comport 2 115200;
#X msg 181 99 open 2;
#X obj -8 305 unpack f f;
#X connect 3 0 15 0;
#X connect 4 0 13 0;
#X connect 7 0 13 0;
#X connect 10 0 11 0;
#X connect 11 0 12 0;
#X connect 13 0 3 0;
#X connect 14 0 13 0;
#X connect 15 0 10 0;
#X connect 15 1 11 1;
