#N canvas 0 23 1005 517 10;
#X obj 72 116 poly 5;
#X obj 72 137 pack f f f;
#X obj 71 158 route 1 2 3 4 5;
#X obj 49 46 inlet notes;
#X obj 128 45 inlet vel;
#X obj 100 179 vox1;
#X obj 130 179 vox1;
#X obj 161 179 vox1;
#X obj 191 179 vox1;
#X obj 73 252 outlet~ G;
#X obj 153 254 outlet~ D;
#X floatatom 289 180 5 0 0 0 - - -, f 5;
#X obj 290 43 vsl 15 128 1 1000 0 0 empty empty empty 0 -9 0 10 -262144
-1 -1 305 1;
#X obj 261 214 s attack;
#X obj 334 42 vsl 15 128 1 1000 0 0 empty empty empty 0 -9 0 10 -262144
-1 -1 12700 1;
#X floatatom 333 180 5 0 0 0 - - -, f 5;
#X obj 324 214 s decay;
#X obj 384 43 vsl 15 128 0 1 0 0 empty empty empty 0 -9 0 10 -262144
-1 -1 12700 1;
#X floatatom 384 182 5 0 0 0 - - -, f 5;
#X obj 381 213 s sustain;
#X obj 429 26 vsl 15 128 1 1000 0 0 empty empty empty 0 -9 0 10 -262144
-1 -1 12700 1;
#X floatatom 429 183 5 0 0 0 - - -, f 5;
#X obj 445 213 s release;
#X text 283 20 A(ms);
#X text 324 20 D(ms);
#X text 365 20 S (gain);
#X text 429 21 R (ms);
#X obj 70 179 vox1;
#X obj 541 18 loadbang;
#X obj 606 273 hsl 128 15 0 4 0 0 empty empty empty -2 -8 0 10 -262144
-1 -1 6299 1;
#X floatatom 598 294 5 0 0 0 - - -, f 5;
#X obj 598 314 s res;
#X obj 624 120 hsl 128 15 1 100 0 0 empty empty empty -2 -8 0 10 -262144
-1 -1 3720 1;
#X floatatom 593 142 5 0 0 0 - - -, f 5;
#X obj 593 162 s sin/square;
#X obj 597 438 hsl 128 15 0 127 0 0 empty empty empty -2 -8 0 10 -262144
-1 -1 200 1;
#X floatatom 597 460 5 0 0 0 - - -, f 5;
#X obj 596 480 s filter_q;
#X obj 592 365 hsl 128 15 0.01 30 1 0 empty empty empty -2 -8 0 10
-262144 -1 -1 6599 1;
#X floatatom 593 386 5 0 0 0 - - -, f 5;
#X obj 593 406 s lfo_speed;
#X obj 733 412 s lfo_min;
#X obj 734 479 s lfo_max;
#X obj 736 368 hsl 128 15 100 5000 1 0 empty empty empty -2 -8 0 10
-262144 -1 -1 4596 1;
#X obj 741 437 hsl 128 15 1000 20000 1 0 empty empty empty -2 -8 0
10 -262144 -1 -1 6650 1;
#X floatatom 733 388 5 0 0 0 - - -, f 5;
#X floatatom 734 457 9 0 0 0 - - -, f 9;
#X text 527 365 OSC 2;
#X text 524 126 OSC 1;
#X obj 591 197 hsl 128 15 0.01 30 1 0 empty empty empty -2 -8 0 10
-262144 -1 -1 6599 1;
#X obj 738 199 hsl 128 15 100 5000 1 0 empty empty empty -2 -8 0 10
-262144 -1 -1 0 1;
#X obj 744 272 hsl 128 15 1000 20000 1 0 empty empty empty -2 -8 0
10 -262144 -1 -1 12700 1;
#X floatatom 735 219 5 0 0 0 - - -, f 5;
#X floatatom 741 293 9 0 0 0 - - -, f 9;
#X floatatom 595 217 5 0 0 0 - - -, f 5;
#X obj 595 237 s lfo_speed1;
#X obj 735 243 s lfo_min1;
#X obj 738 314 s lfo_max1;
#X msg 486 55 25;
#X msg 707 160 0.641;
#X msg 789 148 100;
#X msg 843 127 1.984;
#X msg 881 163 20000;
#X msg 645 88 30;
#X msg 912 246 0.641;
#X msg 918 328 2;
#X msg 926 284 412;
#X msg 895 397 4800;
#X msg 590 54 1000;
#X msg 552 54 1;
#X msg 520 55 1000;
#X obj 154 229 *~ 0.2;
#X obj 74 227 *~ 0.2;
#X connect 0 0 1 0;
#X connect 0 1 1 1;
#X connect 0 2 1 2;
#X connect 1 0 2 0;
#X connect 2 0 27 0;
#X connect 2 1 5 0;
#X connect 2 2 6 0;
#X connect 2 3 7 0;
#X connect 2 4 8 0;
#X connect 3 0 0 0;
#X connect 4 0 0 1;
#X connect 5 0 71 0;
#X connect 5 0 72 0;
#X connect 6 0 71 0;
#X connect 6 0 72 0;
#X connect 7 0 71 0;
#X connect 7 0 72 0;
#X connect 8 0 71 0;
#X connect 8 0 72 0;
#X connect 11 0 13 0;
#X connect 12 0 11 0;
#X connect 14 0 15 0;
#X connect 15 0 16 0;
#X connect 17 0 18 0;
#X connect 18 0 19 0;
#X connect 20 0 21 0;
#X connect 21 0 22 0;
#X connect 27 0 71 0;
#X connect 27 0 72 0;
#X connect 28 0 58 0;
#X connect 28 0 70 0;
#X connect 28 0 69 0;
#X connect 28 0 68 0;
#X connect 28 0 63 0;
#X connect 28 0 59 0;
#X connect 28 0 60 0;
#X connect 28 0 61 0;
#X connect 28 0 62 0;
#X connect 28 0 64 0;
#X connect 28 0 66 0;
#X connect 28 0 65 0;
#X connect 28 0 67 0;
#X connect 29 0 30 0;
#X connect 30 0 31 0;
#X connect 32 0 33 0;
#X connect 33 0 34 0;
#X connect 35 0 36 0;
#X connect 36 0 37 0;
#X connect 38 0 39 0;
#X connect 39 0 40 0;
#X connect 43 0 45 0;
#X connect 44 0 46 0;
#X connect 45 0 41 0;
#X connect 46 0 42 0;
#X connect 49 0 54 0;
#X connect 50 0 52 0;
#X connect 51 0 53 0;
#X connect 52 0 56 0;
#X connect 53 0 57 0;
#X connect 54 0 55 0;
#X connect 58 0 12 0;
#X connect 59 0 49 0;
#X connect 60 0 50 0;
#X connect 61 0 29 0;
#X connect 62 0 51 0;
#X connect 63 0 32 0;
#X connect 64 0 38 0;
#X connect 65 0 35 0;
#X connect 66 0 43 0;
#X connect 67 0 44 0;
#X connect 68 0 20 0;
#X connect 69 0 17 0;
#X connect 70 0 14 0;
#X connect 71 0 10 0;
#X connect 72 0 9 0;
