#N canvas 468 28 728 678 10;
#X obj 74 25 inlet midi;
#X text 149 44 pitch \, velocity;
#X obj 80 65 unpack;
#X obj 286 445 outlet~;
#X obj 79 89 mtof;
#X obj 77 142 *~;
#X obj 78 116 sig~;
#X obj 138 78 loadbang;
#X obj 136 111 varalea~ 1000 0.99 1.01;
#X obj 222 173 osc~;
#X obj 222 194 *~ 1;
#X obj 222 215 clip~ -1 1;
#X obj 338 321 bob~;
#X obj 347 189 r freq;
#X msg 347 210 \$1 100;
#X obj 415 184 r res;
#X obj 415 235 clip 0 4;
#X obj 349 267 line~;
#X msg 415 256 \$1 100;
#X obj 415 277 line~;
#X obj 310 104 r sin/square;
#X floatatom 310 138 5 0 0 0 - - -;
#X floatatom 347 233 5 0 0 0 - - -;
#X floatatom 415 212 5 0 0 0 - - -;
#X obj 424 36 r attack;
#X floatatom 423 62 5 0 0 0 - - -;
#X obj 497 34 r decay;
#X floatatom 497 55 5 0 0 0 - - -;
#X obj 564 35 r sustain;
#X floatatom 564 56 5 0 0 0 - - -;
#X obj 605 60 r release;
#X floatatom 605 81 5 0 0 0 - - -;
#X obj 77 168 phasor~;
#X obj 77 190 *~ 2;
#X obj 77 213 -~ 1;
#X obj 78 383 vcf~ 5;
#X obj 92 319 lfo~ 0.1 250 2500;
#X obj 286 420 *~;
#X obj 92 237 r lfo_speed;
#X floatatom 92 285 5 0 0 0 - - -;
#X floatatom 136 360 5 0 0 0 - - -;
#X obj 212 325 r filter_q;
#X obj 164 249 r lfo_min;
#X obj 207 279 r lfo_max;
#X floatatom 140 284 5 0 0 0 - - -;
#X floatatom 207 300 5 0 0 0 - - -;
#X obj 287 396 +~;
#X obj 416 116 adsrmidi~2;
#X connect 0 0 2 0;
#X connect 2 0 4 0;
#X connect 2 1 47 0;
#X connect 4 0 9 0;
#X connect 4 0 6 0;
#X connect 5 0 32 0;
#X connect 6 0 5 0;
#X connect 7 0 8 0;
#X connect 8 0 5 1;
#X connect 9 0 10 0;
#X connect 10 0 11 0;
#X connect 11 0 12 0;
#X connect 12 0 46 1;
#X connect 13 0 14 0;
#X connect 14 0 22 0;
#X connect 15 0 23 0;
#X connect 16 0 18 0;
#X connect 17 0 12 1;
#X connect 18 0 19 0;
#X connect 19 0 12 2;
#X connect 20 0 21 0;
#X connect 21 0 10 1;
#X connect 22 0 17 0;
#X connect 23 0 16 0;
#X connect 24 0 25 0;
#X connect 25 0 47 1;
#X connect 26 0 27 0;
#X connect 27 0 47 2;
#X connect 28 0 29 0;
#X connect 29 0 47 3;
#X connect 30 0 31 0;
#X connect 31 0 47 4;
#X connect 32 0 33 0;
#X connect 33 0 34 0;
#X connect 34 0 35 0;
#X connect 35 0 46 0;
#X connect 36 0 35 1;
#X connect 37 0 3 0;
#X connect 38 0 39 0;
#X connect 39 0 36 0;
#X connect 40 0 35 2;
#X connect 41 0 40 0;
#X connect 42 0 44 0;
#X connect 43 0 45 0;
#X connect 44 0 36 1;
#X connect 45 0 36 2;
#X connect 46 0 37 0;
#X connect 47 0 37 1;
